<?xml version="1.0" encoding="utf-8"?>
<!-- Generator: Adobe Illustrator 24.1.2, SVG Export Plug-In . SVG Version: 6.00 Build 0)  -->
<svg version="1.1" id="Layer_1" xmlns="http://www.w3.org/2000/svg" xmlns:xlink="http://www.w3.org/1999/xlink" x="0px" y="0px"
	 viewBox="0 0 438.6 371.1" style="enable-background:new 0 0 438.6 371.1;" xml:space="preserve">
<style type="text/css">
	.st0{display:none;}
	.st1{display:inline;fill:#FFFFFF;}
	.st2{clip-path:url(#SVGID_2_);}
	.st3{clip-path:url(#SVGID_4_);fill:#EA4434;}
	.st4{clip-path:url(#SVGID_6_);}
	.st5{clip-path:url(#SVGID_8_);fill:#547EBE;}
	.st6{clip-path:url(#SVGID_10_);}
	.st7{clip-path:url(#SVGID_12_);fill:#F9BA15;}
	.st8{clip-path:url(#SVGID_14_);}
	.st9{clip-path:url(#SVGID_16_);fill:#0E9D58;}
	.st10{display:inline;}
	.st11{fill:#FFFFFF;}
	.st12{fill:#1A73E8;}
</style>
<g id="Layer_1_1_" class="st0">
	<path class="st1" d="M321.3,235.5L168.1,147c-6.9-4-14.4-5.9-21.8-5.9c-15.1,0-29.7,7.8-37.8,21.8c-12.1,20.9-4.9,47.6,16,59.6
		L277.7,311c6.9,4,14.4,5.9,21.8,5.9c15.1,0,29.7-7.8,37.8-21.8C349.3,274.2,342.2,247.5,321.3,235.5"/>
	<path class="st1" d="M626.9,147L473.6,58.5c-6.9-4-14.4-5.9-21.8-5.9c-15.1,0-29.7,7.8-37.8,21.8c-12.1,20.9-4.9,47.6,16,59.6
		l153.2,88.5c6.9,4,14.4,5.9,21.8,5.9c15.1,0,29.7-7.8,37.8-21.8C654.9,185.7,647.8,159.1,626.9,147"/>
	<path class="st1" d="M577.2,233.1l-71.5-41.3L430,235.5c-20.9,12-28,38.7-16,59.6c8.1,14,22.7,21.8,37.8,21.8
		c7.4,0,14.9-1.9,21.8-5.9l123.2-71.1C589.9,238.9,583.3,236.6,577.2,233.1"/>
	<path class="st1" d="M174.1,136.5l71.5,41.3l75.7-43.7c20.9-12,28-38.7,16-59.6c-12.1-20.9-38.7-28-59.6-16l-123.2,71.1
		C161.4,130.7,168,133,174.1,136.5"/>
</g>
<g>
	<g>
		<g>
			<g>
				<defs>
					<path id="SVGID_13_" d="M145.2-604.2l155.6,88.5c21.3,12.2,28.8,39.2,16.7,60.5s-39.2,28.8-60.5,16.7L101.4-527
						c-21.3-12.2-28.8-39.2-16.6-60.5C96.7-608.9,123.9-616.3,145.2-604.2z"/>
				</defs>
				<clipPath id="SVGID_2_">
					<use xlink:href="#SVGID_13_"  style="overflow:visible;"/>
				</clipPath>
				<g class="st2">
					<g>
						<g>
							<defs>
								
									<rect id="SVGID_15_" x="-35.5" y="-765.9" transform="matrix(0.8596 -0.511 0.511 0.8596 255.5186 104.3238)" width="706.2" height="706.2"/>
							</defs>
							<clipPath id="SVGID_4_">
								<use xlink:href="#SVGID_15_"  style="overflow:visible;"/>
							</clipPath>
						</g>
					</g>
				</g>
			</g>
		</g>
	</g>
</g>
<g id="Layer_3" class="st0">
	<g class="st10">
		<path class="st11" d="M320.8,235.9l-154.6-89.3c-6.9-4-14.5-5.9-22-5.9c-15.2,0-30,7.9-38.2,22c-12.2,21.1-4.9,48,16.1,60.1
			l154.6,89.3c6.9,4,14.5,5.9,22,5.9c15.2,0,30-7.9,38.2-22C349.1,275,341.9,248.1,320.8,235.9"/>
		<path class="st11" d="M629.1,146.7L474.5,57.4c-6.9-4-14.5-5.9-22-5.9c-15.2,0-30,7.9-38.2,22c-12.2,21.1-4.9,48,16.1,60.1
			L585,222.9c6.9,4,14.5,5.9,22,5.9c15.2,0,30-7.9,38.2-22C657.4,185.8,650.2,158.8,629.1,146.7"/>
		<path class="st11" d="M579,233.5l-72.2-41.7l-76.3,44.1c-21.1,12.2-28.3,39.1-16.1,60.1c8.2,14.1,23,22,38.2,22
			c7.5,0,15-1.9,22-5.9l124.3-71.8C591.9,239.4,585.1,237.1,579,233.5"/>
		<path class="st11" d="M172.3,136.1l72.2,41.7l76.3-44.1c21.1-12.2,28.3-39.1,16.1-60.1c-12.2-21.1-39.1-28.3-60.1-16.1
			l-124.3,71.8C159.5,130.2,166.2,132.5,172.3,136.1"/>
	</g>
</g>
<g>
	<path class="st12" d="M395.6,57.7h-21.3c-3.4-0.4-6.4,1.9-6.8,5.1c-0.4,3.2,2,6.1,5.4,6.5c0.5,0.1,1,0.1,1.5,0h21.3
		c10.1,0,18.3,7.9,18.3,17.5v26.8H22.1V86.9c0-9.7,8.2-17.5,18.3-17.5h307.1c3.4-0.4,5.8-3.3,5.4-6.5c-0.3-2.7-2.6-4.8-5.4-5.1H40.4
		c-16.8,0-30.5,13.1-30.5,29.2v64.3c0,3.2,2.7,5.8,6.1,5.8c3.4,0,6.1-2.6,6.1-5.8v-25.8h391.7v150.3c0.4,3.2,3.4,5.5,6.8,5.2
		c2.8-0.3,5.1-2.5,5.4-5.2V86.9C426,70.8,412.4,57.7,395.6,57.7z"/>
	<path class="st12" d="M420,294.4c-3.4,0-6.1,2.6-6.1,5.8v15.2c0,9.7-8.2,17.5-18.3,17.5H40.4c-10.1,0-18.3-7.8-18.3-17.5V176.1
		c0-3.2-2.7-5.8-6.1-5.8c-3.4,0-6.1,2.6-6.1,5.8v139.2c0,16.1,13.7,29.1,30.5,29.1h355.2c16.8,0,30.5-13.1,30.5-29.1v-15.2
		C426,297,423.3,294.4,420,294.4z"/>
	<path class="st12" d="M98.1,184.4c-2.4-2.3-6.2-2.3-8.6,0l-36.7,35c-2.4,2.3-2.4,6,0,8.2L89,262.2c2.7,2,6.5,1.6,8.6-1
		c1.8-2.1,1.8-5.1,0-7.3l-31.8-30.5l32.3-30.9C100.5,190.3,100.5,186.7,98.1,184.4C98.1,184.4,98.1,184.4,98.1,184.4z"/>
	<path class="st12" d="M180.1,262.2c2.4,2.3,6.2,2.3,8.6,0c0,0,0,0,0,0l36.1-34.6c2.4-2.3,2.4-6,0-8.2c0,0,0,0,0,0l-36.6-35
		c-2.7-2-6.5-1.6-8.6,1c-1.8,2.1-1.8,5.1,0,7.3l32.3,30.9L180.1,254C177.7,256.2,177.7,259.9,180.1,262.2
		C180.1,262.2,180.1,262.2,180.1,262.2z"/>
	<path class="st12" d="M117.2,283.7c2.5,0,4.8-1.5,5.7-3.8l43.3-109.1c0.8-3.1-1.2-6.3-4.4-7.1c-2.8-0.7-5.6,0.6-7,3l-43.3,109.1
		c-1.2,3,0.5,6.4,3.6,7.5C115.8,283.6,116.5,283.7,117.2,283.7z"/>
	<path class="st12" d="M36.7,91.8c0,9.7,8.2,17.5,18.3,17.5c10.1,0,18.3-7.8,18.3-17.5c0-9.7-8.2-17.5-18.3-17.5
		C44.9,74.3,36.8,82.1,36.7,91.8z M61.1,91.8c0,3.2-2.7,5.9-6.1,5.9c-3.4,0-6.2-2.6-6.2-5.8c0-3.2,2.7-5.9,6.1-5.9c0,0,0,0,0,0
		C58.4,85.9,61.1,88.5,61.1,91.8L61.1,91.8z"/>
	<path class="st12" d="M84,91.8c0,9.7,8.2,17.5,18.3,17.5s18.3-7.8,18.3-17.5c0-9.7-8.2-17.5-18.3-17.5C92.2,74.3,84,82.1,84,91.8z
		 M108.4,91.8c0,3.2-2.7,5.8-6.1,5.8c-3.4,0-6.1-2.6-6.1-5.8S99,86,102.3,86l0,0C105.7,86,108.4,88.6,108.4,91.8z"/>
	<path class="st12" d="M131.3,91.8c0,9.7,8.2,17.5,18.3,17.5s18.3-7.8,18.3-17.5c0-9.7-8.2-17.5-18.3-17.5
		C139.5,74.3,131.3,82.1,131.3,91.8z M155.7,91.8c0,3.2-2.7,5.9-6.1,5.9c-3.4,0-6.2-2.6-6.2-5.8c0-3.2,2.7-5.9,6.1-5.9
		c0,0,0.1,0,0.1,0C152.9,86,155.7,88.6,155.7,91.8z"/>
	<path class="st12" d="M282.6,190.5h38.2c10.1,0,18.3-7.8,18.3-17.5c0-9.7-8.2-17.5-18.3-17.5h-38.2c-10.1,0-18.3,7.8-18.3,17.5
		C264.3,182.7,272.5,190.5,282.6,190.5z M282.6,167.2h38.2c3.4,0,6.1,2.6,6.1,5.8c0,3.2-2.7,5.8-6.1,5.8h-38.2
		c-3.4,0-6.1-2.6-6.1-5.8C276.5,169.8,279.3,167.2,282.6,167.2z"/>
	<path class="st12" d="M282.6,237.2h100.8c10.1-0.2,18.1-8.2,17.9-17.9c-0.2-9.4-8.1-16.9-17.9-17.1H282.6
		c-10.1,0.2-18.1,8.2-17.9,17.9C264.9,229.4,272.8,237,282.6,237.2z M282.6,213.8h100.8c3.4-0.4,6.4,1.9,6.8,5.1s-2,6.1-5.4,6.5
		c-0.5,0.1-1,0.1-1.5,0H282.6c-3.4,0.4-6.4-1.9-6.8-5.1c-0.4-3.2,2-6.1,5.4-6.5C281.6,213.8,282.1,213.8,282.6,213.8z"/>
	<path class="st12" d="M282.6,283.8h70.8c10.1,0,18.3-7.8,18.3-17.5s-8.2-17.5-18.3-17.5c0,0,0,0,0,0h-70.8
		c-10.1,0-18.3,7.8-18.3,17.5C264.3,276,272.5,283.8,282.6,283.8z M282.6,260.5h70.8c3.4,0,6.1,2.6,6.1,5.8s-2.7,5.8-6.1,5.8h-70.8
		c-3.4,0-6.1-2.6-6.1-5.8C276.5,263.1,279.2,260.5,282.6,260.5C282.6,260.5,282.6,260.5,282.6,260.5L282.6,260.5z"/>
</g>
</svg>
