<?xml version="1.0" encoding="utf-8"?>
<!-- Generator: Adobe Illustrator 24.1.2, SVG Export Plug-In . SVG Version: 6.00 Build 0)  -->
<svg version="1.1" id="Layer_1" xmlns="http://www.w3.org/2000/svg" xmlns:xlink="http://www.w3.org/1999/xlink" x="0px" y="0px"
	 viewBox="0 0 438.6 371.1" style="enable-background:new 0 0 438.6 371.1;" xml:space="preserve">
<style type="text/css">
	.st0{display:none;}
	.st1{display:inline;fill:#FFFFFF;}
	.st2{clip-path:url(#SVGID_2_);}
	.st3{clip-path:url(#SVGID_4_);fill:#EA4434;}
	.st4{clip-path:url(#SVGID_6_);}
	.st5{clip-path:url(#SVGID_8_);fill:#547EBE;}
	.st6{clip-path:url(#SVGID_10_);}
	.st7{clip-path:url(#SVGID_12_);fill:#F9BA15;}
	.st8{clip-path:url(#SVGID_14_);}
	.st9{clip-path:url(#SVGID_16_);fill:#0E9D58;}
	.st10{display:inline;}
	.st11{fill:#FFFFFF;}
	.st12{fill:#1A73E8;}
</style>
<g id="Layer_1_1_" class="st0">
	<path class="st1" d="M321.3,235.5L168.1,147c-6.9-4-14.4-5.9-21.8-5.9c-15.1,0-29.7,7.8-37.8,21.8c-12.1,20.9-4.9,47.6,16,59.6
		L277.7,311c6.9,4,14.4,5.9,21.8,5.9c15.1,0,29.7-7.8,37.8-21.8C349.3,274.2,342.2,247.5,321.3,235.5"/>
	<path class="st1" d="M626.9,147L473.6,58.5c-6.9-4-14.4-5.9-21.8-5.9c-15.1,0-29.7,7.8-37.8,21.8c-12.1,20.9-4.9,47.6,16,59.6
		l153.2,88.5c6.9,4,14.4,5.9,21.8,5.9c15.1,0,29.7-7.8,37.8-21.8C654.9,185.7,647.8,159.1,626.9,147"/>
	<path class="st1" d="M577.2,233.1l-71.5-41.3L430,235.5c-20.9,12-28,38.7-16,59.6c8.1,14,22.7,21.8,37.8,21.8
		c7.4,0,14.9-1.9,21.8-5.9l123.2-71.1C589.9,238.9,583.3,236.6,577.2,233.1"/>
	<path class="st1" d="M174.1,136.5l71.5,41.3l75.7-43.7c20.9-12,28-38.7,16-59.6c-12.1-20.9-38.7-28-59.6-16l-123.2,71.1
		C161.4,130.7,168,133,174.1,136.5"/>
</g>
<g>
	<g>
		<g>
			<g>
				<defs>
					<path id="SVGID_1_" d="M-47.3-604.4l-154.4,90.5c-21.1,12.4-28.2,39.6-15.9,60.8c12.4,21.1,39.6,28.2,60.7,15.9l154.4-90.5
						c21.1-12.4,28.2-39.6,15.8-60.7C1-609.7-26.1-616.8-47.3-604.4z"/>
				</defs>
				<clipPath id="SVGID_2_">
					<use xlink:href="#SVGID_1_"  style="overflow:visible;"/>
				</clipPath>
				<g class="st2">
					<g>
						<g>
							<defs>
								
									<rect id="SVGID_3_" x="-341.5" y="-982.4" transform="matrix(0.4889 -0.8723 0.8723 0.4889 554.8889 -311.5286)" width="706.2" height="706.2"/>
							</defs>
							<clipPath id="SVGID_4_">
								<use xlink:href="#SVGID_3_"  style="overflow:visible;"/>
							</clipPath>
							
								<rect x="-243" y="-572.3" transform="matrix(0.8628 -0.5055 0.5055 0.8628 249.309 -123.0275)" class="st3" width="281.9" height="102.9"/>
						</g>
					</g>
				</g>
			</g>
		</g>
	</g>
	<g>
		<g>
			<g>
				<defs>
					<path id="SVGID_5_" d="M-3.2-424.9l-155.6-88.5c-21.3-12.2-48.4-4.7-60.6,16.6c-12.2,21.3-4.7,48.4,16.7,60.6l155.6,88.5
						c21.3,12.2,48.4,4.7,60.5-16.6C25.6-385.7,18.2-412.8-3.2-424.9z"/>
				</defs>
				<clipPath id="SVGID_6_">
					<use xlink:href="#SVGID_5_"  style="overflow:visible;"/>
				</clipPath>
				<g class="st4">
					<g>
						<g>
							<defs>
								
									<rect id="SVGID_7_" x="-571.4" y="-891.5" transform="matrix(0.8596 -0.511 0.511 0.8596 244.4563 -187.1322)" width="706.2" height="706.2"/>
							</defs>
							<clipPath id="SVGID_8_">
								<use xlink:href="#SVGID_7_"  style="overflow:visible;"/>
							</clipPath>
							
								<rect x="-154.4" y="-571.6" transform="matrix(0.4945 -0.8692 0.8692 0.4945 322.2805 -307.1819)" class="st5" width="102.9" height="281.9"/>
						</g>
					</g>
				</g>
			</g>
		</g>
	</g>
	<g>
		<g>
			<g>
				<defs>
					<path id="SVGID_9_" d="M100.5-424.2l154.4-90.5c21.1-12.4,48.4-5.3,60.7,15.8c12.4,21.1,5.3,48.4-15.8,60.8l-154.4,90.5
						c-21.1,12.4-48.4,5.3-60.8-15.9C72.3-384.6,79.4-411.8,100.5-424.2z"/>
				</defs>
				<clipPath id="SVGID_10_">
					<use xlink:href="#SVGID_9_"  style="overflow:visible;"/>
				</clipPath>
				<g class="st6">
					<g>
						<g>
							<defs>
								
									<rect id="SVGID_11_" x="-304.7" y="-828.8" transform="matrix(1 -6.385296e-03 6.385296e-03 1 3.0385 0.2994)" width="706.2" height="706.2"/>
							</defs>
							<clipPath id="SVGID_12_">
								<use xlink:href="#SVGID_11_"  style="overflow:visible;"/>
							</clipPath>
							<polygon class="st7" points="52.5,-404.3 295.8,-546.7 347.8,-458 104.6,-315.5 							"/>
						</g>
					</g>
				</g>
			</g>
		</g>
	</g>
	<g>
		<g>
			<g>
				<defs>
					<path id="SVGID_13_" d="M145.2-604.2l155.6,88.5c21.3,12.2,28.8,39.2,16.7,60.5s-39.2,28.8-60.5,16.7L101.4-527
						c-21.3-12.2-28.8-39.2-16.6-60.5C96.7-608.9,123.9-616.3,145.2-604.2z"/>
				</defs>
				<clipPath id="SVGID_14_">
					<use xlink:href="#SVGID_13_"  style="overflow:visible;"/>
				</clipPath>
				<g class="st8">
					<g>
						<g>
							<defs>
								
									<rect id="SVGID_15_" x="-35.5" y="-765.9" transform="matrix(0.8596 -0.511 0.511 0.8596 255.5186 104.3238)" width="706.2" height="706.2"/>
							</defs>
							<clipPath id="SVGID_16_">
								<use xlink:href="#SVGID_15_"  style="overflow:visible;"/>
							</clipPath>
							
								<rect x="149.6" y="-662.4" transform="matrix(0.4945 -0.8692 0.8692 0.4945 554.8373 -88.8384)" class="st9" width="102.9" height="281.9"/>
						</g>
					</g>
				</g>
			</g>
		</g>
	</g>
</g>
<g id="Layer_3" class="st0">
	<g class="st10">
		<path class="st11" d="M320.8,235.9l-154.6-89.3c-6.9-4-14.5-5.9-22-5.9c-15.2,0-30,7.9-38.2,22c-12.2,21.1-4.9,48,16.1,60.1
			l154.6,89.3c6.9,4,14.5,5.9,22,5.9c15.2,0,30-7.9,38.2-22C349.1,275,341.9,248.1,320.8,235.9"/>
		<path class="st11" d="M629.1,146.7L474.5,57.4c-6.9-4-14.5-5.9-22-5.9c-15.2,0-30,7.9-38.2,22c-12.2,21.1-4.9,48,16.1,60.1
			L585,222.9c6.9,4,14.5,5.9,22,5.9c15.2,0,30-7.9,38.2-22C657.4,185.8,650.2,158.8,629.1,146.7"/>
		<path class="st11" d="M579,233.5l-72.2-41.7l-76.3,44.1c-21.1,12.2-28.3,39.1-16.1,60.1c8.2,14.1,23,22,38.2,22
			c7.5,0,15-1.9,22-5.9l124.3-71.8C591.9,239.4,585.1,237.1,579,233.5"/>
		<path class="st11" d="M172.3,136.1l72.2,41.7l76.3-44.1c21.1-12.2,28.3-39.1,16.1-60.1c-12.2-21.1-39.1-28.3-60.1-16.1
			l-124.3,71.8C159.5,130.2,166.2,132.5,172.3,136.1"/>
		<path class="st11" d="M755.9,157.8c-8.8-5.1-15.8-12.1-21-21s-7.8-18.7-7.8-29.5s2.6-20.6,7.8-29.6c5.2-8.9,12.2-15.9,21-21
			s18.4-7.7,28.9-7.7c8.2,0,15.9,1.5,23.1,4.4c7.2,2.9,13.1,7,17.8,12.3l-9.5,9.5c-3.5-4.4-8-7.7-13.5-10
			c-5.5-2.3-11.4-3.5-17.7-3.5c-7.9,0-15.2,1.9-22,5.7c-6.8,3.8-12.2,9.2-16.3,16c-4.1,6.9-6.1,14.8-6.1,23.9c0,9,2,17,6.1,23.8
			c4.1,6.9,9.6,12.3,16.4,16c6.9,3.8,14.2,5.7,21.9,5.7c7.4,0,13.7-1.1,18.7-3.5c5-2.3,9.3-5.4,13-9.3c2.7-2.9,4.9-6.4,6.5-10.5
			c1.6-4.1,2.7-8.6,3.1-13.6h-41.2v-12.3h53.5c0.5,2.9,0.8,5.6,0.8,8.1c0,6.9-1.1,13.5-3.3,20s-5.7,12.1-10.4,17
			c-10.2,11.1-23.9,16.6-40.9,16.6C774.4,165.4,764.7,162.8,755.9,157.8z"/>
		<path class="st11" d="M857.6,51.6h33.6c11.4,0,21.3,2.3,29.8,7.1c8.5,4.7,15,11.3,19.6,19.7c4.5,8.4,6.8,18,6.8,28.9
			s-2.3,20.5-6.8,28.9c-4.6,8.4-11.1,14.9-19.6,19.7c-8.5,4.7-18.4,7-29.8,7h-33.6V51.6z M891.2,150.3c13.2,0,23.6-3.8,31.3-11.3
			s11.6-18.1,11.6-31.7s-3.9-24.2-11.6-31.7c-7.7-7.6-18.2-11.3-31.3-11.3h-20.5v86.1L891.2,150.3L891.2,150.3z"/>
		<path class="st11" d="M988.8,157.8c-8.8-5.1-15.8-12.1-21-21s-7.8-18.7-7.8-29.5s2.6-20.6,7.8-29.6c5.2-8.9,12.1-15.9,21-21
			c8.8-5.1,18.4-7.7,28.9-7.7c8.2,0,15.9,1.5,23.1,4.4c7.2,2.9,13.1,7,17.8,12.3l-9.5,9.5c-3.5-4.4-8-7.7-13.5-10
			c-5.5-2.3-11.4-3.5-17.7-3.5c-7.9,0-15.2,1.9-22,5.7c-6.8,3.8-12.2,9.2-16.3,16c-4.1,6.9-6.1,14.8-6.1,23.9c0,9,2,17,6.1,23.8
			c4.1,6.9,9.6,12.3,16.4,16c6.8,3.8,14.1,5.7,21.9,5.7c7.5,0,13.7-1.1,18.8-3.5c5-2.3,9.4-5.4,13-9.3c2.7-2.9,4.9-6.4,6.6-10.5
			c1.6-4.1,2.7-8.6,3.1-13.6h-41.2v-12.3h53.5c0.5,2.9,0.8,5.6,0.8,8.1c0,6.9-1.1,13.5-3.3,20c-2.2,6.5-5.7,12.1-10.4,17
			c-10.3,11.1-23.9,16.6-40.9,16.6C1007.2,165.4,997.6,162.8,988.8,157.8z"/>
		<path class="st11" d="M755.9,307.2c-8.8-5-15.8-12.1-21-21s-7.8-18.7-7.8-29.5c0-10.8,2.6-20.6,7.8-29.5s12.2-15.9,21-21
			s18.4-7.7,28.9-7.7c8.2,0,15.9,1.5,23.1,4.4c7.2,2.9,13.1,7,17.8,12.3l-9.5,9.5c-3.5-4.3-8-7.7-13.5-10s-11.4-3.5-17.7-3.5
			c-7.9,0-15.2,1.9-22,5.6c-6.8,3.8-12.2,9.1-16.3,16s-6.1,14.9-6.1,23.9s2,17,6.1,23.9s9.6,12.2,16.4,16c6.9,3.8,14.2,5.7,21.9,5.7
			c7.4,0,13.7-1.2,18.7-3.5s9.3-5.4,13-9.2c2.7-2.9,4.9-6.5,6.5-10.5c1.6-4.1,2.7-8.6,3.1-13.6h-41.2v-12.3h53.5
			c0.5,2.9,0.8,5.6,0.8,8.1c0,6.8-1.1,13.5-3.3,20s-5.7,12.1-10.4,17c-10.2,11.1-23.9,16.6-40.9,16.6
			C774.4,314.8,764.7,312.3,755.9,307.2z"/>
		<path class="st11" d="M869.9,309.4c-6-3.6-10.7-8.6-14.1-15c-3.4-6.4-5-13.6-5-21.6c0-7.7,1.6-14.7,4.7-21.1
			c3.2-6.4,7.7-11.6,13.5-15.4c5.8-3.9,12.5-5.8,20.2-5.8c7.8,0,14.5,1.7,20.2,5.2c5.7,3.4,10.1,8.2,13.1,14.4
			c3.1,6.1,4.6,13.1,4.6,21c0,1.5-0.1,2.8-0.4,4H864c0.3,6,1.8,11.1,4.4,15.2c2.6,4.2,5.9,7.3,9.9,9.4s8.2,3.1,12.5,3.1
			c10.2,0,18-4.8,23.5-14.3l11.2,5.4c-3.4,6.4-8.1,11.5-13.9,15.2c-5.8,3.8-12.9,5.6-21.2,5.6C882.7,314.8,875.9,313,869.9,309.4z
			 M913.1,264.3c-0.2-3.3-1.1-6.7-2.8-10c-1.7-3.4-4.3-6.1-7.8-8.4c-3.6-2.3-8.1-3.4-13.5-3.4c-6.2,0-11.5,2-15.8,6
			s-7.1,9.2-8.5,15.8H913.1z"/>
		<path class="st11" d="M956.6,309.2c-6.2-3.7-11.1-8.8-14.5-15.2c-3.5-6.4-5.2-13.5-5.2-21.3s1.7-14.9,5.2-21.3
			c3.5-6.4,8.3-11.5,14.5-15.2s13.2-5.6,21-5.6s14.8,1.8,21,5.6c6.2,3.7,11,8.8,14.5,15.2c3.5,6.4,5.2,13.5,5.2,21.3
			s-1.7,14.9-5.2,21.3s-8.3,11.5-14.5,15.2c-6.2,3.8-13.2,5.6-21,5.6C969.8,314.8,962.9,313,956.6,309.2z M991.2,299.2
			c4.2-2.5,7.6-5.9,10.1-10.5c2.6-4.6,3.8-9.9,3.8-16c0-6.2-1.2-11.5-3.8-16.1c-2.5-4.5-5.9-8-10.1-10.5c-4.2-2.5-8.7-3.7-13.6-3.7
			c-4.9,0-9.4,1.2-13.7,3.7c-4.2,2.4-7.7,5.9-10.2,10.5s-3.8,9.9-3.8,16.1c0,6.1,1.3,11.4,3.8,16c2.5,4.5,5.9,8,10.2,10.5
			c4.2,2.5,8.8,3.6,13.7,3.6C982.5,302.8,987,301.7,991.2,299.2z"/>
		<path class="st11" d="M1032.4,233.1h12.6v12.7h0.6c1.5-4.4,4.5-7.9,9-10.8c4.4-2.9,9.1-4.3,14-4.3c3.6,0,6.7,0.5,9.3,1.5v14.3
			c-3.3-1.7-7-2.5-11.2-2.5c-3.8,0-7.3,1-10.5,3.2s-5.8,5.1-7.7,8.8c-1.9,3.7-2.9,7.6-2.9,11.9v44.4h-13.2L1032.4,233.1
			L1032.4,233.1z"/>
		<path class="st11" d="M1101,341.8c-6.1-4.3-10.1-9.5-12.2-15.7l12-5.1c1.7,4.6,4.7,8.2,8.8,11.2c4.1,2.8,8.9,4.2,14.5,4.2
			c8.2,0,14.5-2.4,19-7.1c4.5-4.8,6.7-11.5,6.7-20.2v-8.8h-0.6c-2.6,4-6.2,7.3-11,9.9c-4.7,2.5-10.1,3.8-16.1,3.8
			c-6.8,0-13.1-1.8-18.7-5.3c-5.7-3.5-10.1-8.5-13.5-14.7c-3.3-6.4-5-13.5-5-21.6c0-8,1.7-15.2,5-21.6s7.8-11.3,13.5-14.9
			c5.6-3.5,11.9-5.3,18.7-5.3c6,0,11.4,1.3,16.1,3.8c4.8,2.5,8.4,5.9,11,10.1h0.6v-11.4h12.6v76.1c0,12.8-3.5,22.5-10.6,29.2
			s-16.3,10-27.8,10C1114.7,348.4,1107.1,346.2,1101,341.8z M1137,298.4c3.9-2.4,7-5.8,9.3-10.3s3.5-9.7,3.5-15.8
			c0-6.2-1.2-11.5-3.5-16.1c-2.3-4.4-5.4-7.8-9.3-10.2c-3.9-2.3-8.2-3.5-13-3.5s-9.1,1.2-13.1,3.6c-3.9,2.4-7.1,5.8-9.4,10.3
			c-2.3,4.4-3.5,9.7-3.5,15.9c0,6.1,1.2,11.4,3.5,15.9s5.5,7.9,9.4,10.2c3.9,2.4,8.3,3.5,13.1,3.5
			C1128.8,301.9,1133.2,300.7,1137,298.4z"/>
		<path class="st11" d="M1195.6,309.4c-6-3.6-10.7-8.6-14.1-15s-5-13.6-5-21.6c0-7.7,1.6-14.7,4.7-21.1c3.2-6.4,7.6-11.6,13.4-15.4
			c5.8-3.9,12.6-5.8,20.2-5.8c7.8,0,14.5,1.7,20.2,5.2c5.7,3.4,10.1,8.2,13.1,14.4c3,6.1,4.6,13.1,4.6,21c0,1.5-0.2,2.8-0.5,4h-62.6
			c0.3,6,1.7,11.1,4.3,15.2c2.6,4.2,5.9,7.3,9.9,9.4s8.2,3.1,12.5,3.1c10.2,0,18-4.8,23.5-14.3l11.2,5.4
			c-3.4,6.4-8.1,11.5-13.9,15.2c-5.9,3.8-12.9,5.6-21.2,5.6C1208.4,314.8,1201.6,313,1195.6,309.4z M1238.8,264.3
			c-0.2-3.3-1.1-6.7-2.8-10c-1.7-3.4-4.3-6.1-7.9-8.4c-3.6-2.3-8.1-3.4-13.4-3.4c-6.2,0-11.5,2-15.8,6s-7.1,9.2-8.5,15.8H1238.8z"/>
		<path class="st11" d="M1327,213.6h-31.3V201h75.6v12.6h-31.1v98.8H1327V213.6z"/>
		<path class="st11" d="M1399.4,309.2c-6.3-3.7-11.1-8.8-14.6-15.2c-3.5-6.4-5.2-13.5-5.2-21.3s1.7-14.9,5.2-21.3
			c3.5-6.4,8.3-11.5,14.6-15.2c6.2-3.7,13.2-5.6,21-5.6s14.8,1.8,21,5.6c6.2,3.7,11,8.8,14.5,15.2c3.5,6.4,5.2,13.5,5.2,21.3
			s-1.7,14.9-5.2,21.3s-8.3,11.5-14.5,15.2c-6.2,3.8-13.2,5.6-21,5.6C1412.6,314.8,1405.6,313,1399.4,309.2z M1434,299.2
			c4.2-2.5,7.6-5.9,10.1-10.5s3.8-9.9,3.8-16c0-6.2-1.3-11.5-3.8-16.1c-2.5-4.5-5.9-8-10.1-10.5s-8.8-3.7-13.6-3.7
			c-4.9,0-9.4,1.2-13.7,3.7c-4.2,2.4-7.6,5.9-10.2,10.5c-2.5,4.6-3.8,9.9-3.8,16.1c0,6.1,1.3,11.4,3.8,16c2.5,4.5,5.9,8,10.2,10.5
			c4.2,2.5,8.8,3.6,13.7,3.6C1425.3,302.8,1429.8,301.7,1434,299.2z"/>
		<path class="st11" d="M1466.4,233.1h13.5l18.9,62.6h0.2l19.9-62.6h13.7l20.1,62.5h0.2l18.8-62.5h13.4l-25.7,79.3H1546l-20.5-63.3
			l-20.4,63.3h-13.2L1466.4,233.1z"/>
		<path class="st11" d="M1594.5,233.1h12.6v11.6h0.6c2.2-3.9,5.7-7.3,10.4-10c4.8-2.8,9.8-4.1,15.2-4.1c9.5,0,16.8,2.7,21.8,8.3
			s7.5,13,7.5,22.6v50.8h-13.2v-48.8c0-7.4-1.8-12.7-5.3-16c-3.5-3.4-8.3-5-14.5-5c-4.3,0-8.1,1.2-11.4,3.6c-3.4,2.4-6,5.5-7.9,9.4
			s-2.8,8-2.8,12.2v44.7h-13.2v-79.3L1594.5,233.1L1594.5,233.1z"/>
	</g>
</g>
<path class="st12" d="M55.2,227.6c1.2,3.2,3.1,6.1,5.5,8.5c4.3,4.3,10.1,6.9,16.6,6.9c6.4,0,12.3-2.6,16.6-6.9
	c4.3-4.3,6.9-10.1,6.9-16.6v-13.1c-4.9,0.4-9.3-0.6-12.7-2.1c-0.3,1.5-0.6,2.9-1.1,4.3c-1.7,5.4-4.5,10.4-8.9,14
	c-4.5,3.6-10.5,5.7-18.4,5.3C58.2,228,56.7,227.8,55.2,227.6L55.2,227.6z M193.5,192.6h46.9v-14.8h-36.1c-3,0-5.7,1.2-7.6,3.2
	c-2,2-3.2,4.6-3.2,7.6L193.5,192.6z M240.4,203.3h-46.9v16.2c0,6.4,2.6,12.3,6.9,16.6c4.3,4.3,10.1,6.9,16.6,6.9s12.3-2.6,16.6-6.9
	c4.3-4.3,6.9-10.1,6.9-16.6L240.4,203.3L240.4,203.3z M386.7,238.9c2.9,1.5,5.4,3.6,7.5,6c3.7,4.4,6,10.1,6,16.2v36
	c0,2.9-2.4,5.3-5.3,5.3s-5.3-2.4-5.3-5.3v-36c0-3.6-1.3-6.8-3.4-9.3c-1.9-2.2-4.5-3.9-7.4-4.7c-5.6,4.1-12.6,6.5-20,6.5
	c-7.7,0-14.9-2.6-20.6-7c-1.1,0.1-2.1,0.4-3.1,0.9c-1.4,0.6-2.6,1.6-3.6,3l-28.7,38c-1,1.3-2.6,2.1-4.3,2.1h-36.7
	c-2.7,0-5.2,1.1-7,2.9c-1.8,1.8-2.9,4.3-2.9,7s1.1,5.2,2.9,7s4.2,2.9,7,2.9h43.9c1.8,0,3.1-0.2,4.8-1c3.1-1.6,6-6.3,8.1-9.1l19-25.1
	c1.8-2.4,5.1-2.8,7.5-1c2.3,1.8,2.8,5.1,1,7.5L328,305.6V352h61.7v-30.7c0-2.9,2.4-5.3,5.3-5.3s5.3,2.4,5.3,5.3v36
	c0,2.9-2.4,5.3-5.3,5.3c-117.9,0-235.9,0-353.8,0c-2.9,0-5.3-2.4-5.3-5.3v-36c0-2.9,2.4-5.3,5.3-5.3c2.9,0,5.3,2.4,5.3,5.3V352h61.7
	v-46.5l-18.2-24c-1.8-2.3-1.3-5.7,1-7.5s5.7-1.3,7.5,1l18.6,24.6c1.7,2.2,3.4,4.5,5.1,6.8c1,1.3,2.2,2.2,3.5,2.9
	c1.5,0.7,2.8,1,4.5,1h44.2c2.7,0,5.2-1.1,7-2.9s2.9-4.2,2.9-7c0-2.7-1.1-5.2-2.9-7c-1.8-1.8-4.3-2.9-7-2.9h-36.8
	c-1.6,0-3.2-0.7-4.3-2.1l-28.7-38c-1.6-2.2-4.1-3.6-6.8-3.9c-5.7,4.4-12.9,7-20.6,7c-7.5,0-14.4-2.4-20-6.5
	c-2.9,0.7-5.4,2.4-7.3,4.6c-2.2,2.5-3.5,5.8-3.5,9.4v36c0,2.9-2.4,5.3-5.3,5.3s-5.3-2.4-5.3-5.3v-36c0-6.2,2.3-12,6.1-16.4
	c2.1-2.4,4.5-4.4,7.3-5.8c-4-5.7-6.1-12.5-6.1-19.4v-30.9c0-5.9,2.4-11.3,6.3-15.2s9.2-6.3,15.2-6.3H90c5.9,0,11.3,2.4,15.2,6.3
	c3.9,3.9,6.3,9.3,6.3,15.2v30.9c0,6.8-2,13.2-5.5,18.6c2.9,1.5,5.3,3.5,7.3,6l27.1,35.8h21.4v-21.7c0-6.1,3.2-11.7,8.5-16.4
	c4.1-3.6,9.4-6.8,15.4-9.3c-1.7-4.1-2.6-8.5-2.6-13.1v-21.6v-9.3c0-5.9,2.4-11.3,6.3-15.2c3.9-3.9,9.3-6.3,15.2-6.3h41.5
	c2.9,0,5.3,2.4,5.3,5.3v25.4v21.6c0,4.4-0.8,8.6-2.4,12.5c6.4,2.5,12.1,5.7,16.5,9.5c5.6,4.8,9,10.5,9,16.9V280h21.4l27.1-35.8
	c2-2.6,4.5-4.6,7.3-6c-3.5-5.4-5.5-11.8-5.5-18.6v-30.9c0-5.9,2.4-11.3,6.3-15.2s9.3-6.3,15.2-6.3h25.4c5.9,0,11.3,2.4,15.2,6.3
	c3.9,3.9,6.3,9.3,6.3,15.2v30.9C392.8,226.4,390.7,233.2,386.7,238.9L386.7,238.9z M380.7,227.6c-1.5,0.2-3,0.4-4.4,0.5
	c-7.9,0.4-13.9-1.7-18.4-5.3s-7.3-8.5-8.9-14c-0.4-1.4-0.8-2.8-1.1-4.3c-3.4,1.4-7.7,2.5-12.7,2.1v13.1c0,6.4,2.6,12.3,6.9,16.6
	s10.1,6.9,16.6,6.9c6.4,0,12.3-2.6,16.6-6.9C377.6,233.7,379.5,230.8,380.7,227.6L380.7,227.6z M335.2,195.8
	c7.1,1,12.3-3.1,13.3-3.9c1-0.9,2-1.4,3.5-1.5c2.9-0.1,5.4,2.1,5.6,5.1c0.2,3.5,0.7,7,1.7,10.2c1.1,3.6,2.8,6.7,5.4,8.8
	s6.2,3.2,11.2,3c1.9-0.1,4.1-0.4,6.4-0.9v-27.8c0-3-1.2-5.6-3.2-7.6s-4.6-3.2-7.6-3.2h-25.4c-3,0-5.7,1.2-7.6,3.2
	c-2,2-3.2,4.6-3.2,7.6L335.2,195.8z M100.7,195.8v-7.1c0-3-1.2-5.6-3.2-7.6s-4.7-3.2-7.6-3.2H64.5c-2.9,0-5.6,1.2-7.6,3.2
	s-3.2,4.6-3.2,7.6v27.8c2.3,0.5,4.4,0.8,6.4,0.9c5,0.2,8.6-0.9,11.2-3s4.3-5.2,5.4-8.8c1-3.2,1.5-6.7,1.6-10.2
	c0.1-2.9,2.6-5.2,5.6-5.1c1.4,0.1,2.4,0.6,3.4,1.5C88.1,192.4,93.4,196.8,100.7,195.8z M191.1,241.8c-5.6,2.2-10.5,4.9-14,8.1
	c-3,2.7-4.9,5.6-4.9,8.5V280h2.1c5.7,0,10.8,2.3,14.5,6s6,8.8,6,14.5c0,3.6-0.9,6.9-2.5,9.8h51.3c-1.6-2.9-2.5-6.3-2.5-9.8
	c0-5.7,2.3-10.8,6-14.5s8.8-6,14.5-6h2.1v-21.7c0-2.9-2-6-5.3-8.8c-3.8-3.3-9.2-6.1-15.1-8.3c-0.7,0.8-1.4,1.6-2.2,2.4
	c-6.2,6.2-14.7,10-24.1,10c-9.4,0-17.9-3.8-24.1-10C192.2,243,191.7,242.4,191.1,241.8L191.1,241.8z M80.2,49.3
	c-2.9,0-5.3-2.4-5.3-5.3c0-2.9,2.4-5.3,5.3-5.3H179c2.9,0,5.3,2.4,5.3,5.3c0,2.9-2.4,5.3-5.3,5.3H80.2z M80.2,105.5
	c-2.9,0-5.3-2.4-5.3-5.3s2.4-5.3,5.3-5.3h49.4c2.9,0,5.3,2.4,5.3,5.3s-2.4,5.3-5.3,5.3H80.2z M80.2,77.4c-2.9,0-5.3-2.4-5.3-5.3
	s2.4-5.3,5.3-5.3H179c2.9,0,5.3,2.4,5.3,5.3s-2.4,5.3-5.3,5.3H80.2z M184.5,134.3c0.7,2.1,1.9,3.9,3.5,5.4c2.7,2.7,6.5,4.4,10.6,4.4
	H230c2.9,0,5.3,2.4,5.3,5.3c0,2.9-2.4,5.3-5.3,5.3h-31.4c-7.1,0-13.5-2.9-18.2-7.6c-3.5-3.5-5.9-8-7-13H99l-24.2,24.2
	c-1,1-2.3,1.6-3.8,1.6c-2.9,0-5.3-2.4-5.3-5.3v-20.9c-6.8-1.1-12.9-4.4-17.5-9.1c-5.9-5.9-9.5-13.9-9.5-22.9V42.2
	c0-8.9,3.6-17,9.5-22.9C54,13.4,62.1,9.8,71,9.8h117.2c8.9,0,17,3.7,22.9,9.5c5.9,5.9,9.5,14,9.5,22.9V52h90.7
	c7.1,0,13.5,2.9,18.2,7.5s7.5,11.1,7.5,18.2v51.4c0,7.1-2.9,13.5-7.5,18.2c-3.5,3.5-7.9,5.9-12.8,7v21c0,1.4-0.5,2.7-1.6,3.8
	c-2.1,2.1-5.5,2.1-7.5,0l-24.2-24.2h-29.2c-2.9,0-5.3-2.4-5.3-5.3c0-3,2.4-5.3,5.3-5.3h31.4c1.5,0,2.8,0.6,3.8,1.6l16.6,16.6v-12.9
	c0-3,2.4-5.3,5.3-5.3c4.1,0,7.9-1.7,10.6-4.4s4.4-6.5,4.4-10.6V77.7c0-4.1-1.7-7.9-4.4-10.6c-2.7-2.7-6.5-4.4-10.6-4.4h-90.7V102
	c0,8.9-3.6,17-9.5,22.9s-13.9,9.5-22.9,9.5L184.5,134.3L184.5,134.3z M96.7,123.7h91.5c6,0,11.4-2.4,15.3-6.4
	c3.9-3.9,6.4-9.4,6.4-15.3V42.2c0-6-2.4-11.4-6.4-15.3c-3.9-3.9-9.3-6.4-15.3-6.4H71c-6,0-11.4,2.4-15.3,6.4
	c-3.9,3.9-6.4,9.4-6.4,15.3V102c0,6,2.4,11.4,6.4,15.3c3.9,3.9,9.3,6.4,15.3,6.4c2.9,0,5.3,2.4,5.3,5.3v12.9L93,125.2
	C94,124.2,95.4,123.7,96.7,123.7L96.7,123.7z M317.1,321H118.7v31h198.4L317.1,321L317.1,321z"/>
</svg>
