<?xml version="1.0" encoding="utf-8"?>
<!-- Generator: Adobe Illustrator 24.1.2, SVG Export Plug-In . SVG Version: 6.00 Build 0)  -->
<svg version="1.1" xmlns="http://www.w3.org/2000/svg" xmlns:xlink="http://www.w3.org/1999/xlink" x="0px" y="0px"
	 viewBox="0 0 1717.9 371.1" style="enable-background:new 0 0 1717.9 371.1;" xml:space="preserve">
<style type="text/css">
	.st0{display:none;}
	.st1{display:inline;fill:#FFFFFF;}
	.st2{clip-path:url(#SVGID_2_);}
	.st3{clip-path:url(#SVGID_4_);fill:#EA4434;}
	.st4{clip-path:url(#SVGID_6_);}
	.st5{clip-path:url(#SVGID_8_);fill:#547EBE;}
	.st6{clip-path:url(#SVGID_10_);}
	.st7{clip-path:url(#SVGID_12_);fill:#F9BA15;}
	.st8{clip-path:url(#SVGID_14_);}
	.st9{clip-path:url(#SVGID_16_);fill:#0E9D58;}
	.st10{fill:#5F6369;}
	.st11{display:inline;}
	.st12{fill:#FFFFFF;}
</style>
<g id="Layer_1" class="st0">
	<path class="st1" d="M321.3,235.5L168.1,147c-6.9-4-14.4-5.9-21.8-5.9c-15.1,0-29.7,7.8-37.8,21.8c-12.1,20.9-4.9,47.6,16,59.6
		l153.2,88.5c6.9,4,14.4,5.9,21.8,5.9c15.1,0,29.7-7.8,37.8-21.8C349.3,274.2,342.2,247.5,321.3,235.5"/>
	<path class="st1" d="M626.9,147L473.6,58.5c-6.9-4-14.4-5.9-21.8-5.9c-15.1,0-29.7,7.8-37.8,21.8c-12.1,20.9-4.9,47.6,16,59.6
		l153.2,88.5c6.9,4,14.4,5.9,21.8,5.9c15.1,0,29.7-7.8,37.8-21.8C654.9,185.7,647.8,159.1,626.9,147"/>
	<path class="st1" d="M577.2,233.1l-71.5-41.3L430,235.5c-20.9,12-28,38.7-16,59.6c8.1,14,22.7,21.8,37.8,21.8
		c7.4,0,14.9-1.9,21.8-5.9l123.2-71.1C589.9,238.9,583.3,236.6,577.2,233.1"/>
	<path class="st1" d="M174.1,136.5l71.5,41.3l75.7-43.7c20.9-12,28-38.7,16-59.6c-12.1-20.9-38.7-28-59.6-16l-123.2,71.1
		C161.4,130.7,168,133,174.1,136.5"/>
</g>
<g id="Layer_2">
	<g>
		<g>
			<defs>
				<path id="SVGID_1_" d="M280.9,55.6l-155,89.5c-21.2,12.3-28.5,39.4-16.3,60.7c12.3,21.2,39.4,28.5,60.6,16.3l155-89.5
					c21.2-12.3,28.5-39.4,16.2-60.6C329.3,50.6,302.2,43.3,280.9,55.6z"/>
			</defs>
			<clipPath id="SVGID_2_">
				<use xlink:href="#SVGID_1_"  style="overflow:visible;"/>
			</clipPath>
			<g class="st2">
				<defs>
					<rect id="SVGID_3_" x="22.7" y="-168.2" width="706.2" height="706.2"/>
				</defs>
				<clipPath id="SVGID_4_">
					<use xlink:href="#SVGID_3_"  style="overflow:visible;"/>
				</clipPath>
				
					<rect x="84.7" y="87.3" transform="matrix(0.866 -0.5 0.5 0.866 -39.1699 131.3971)" class="st3" width="281.9" height="102.9"/>
			</g>
		</g>
		<g>
			<defs>
				<path id="SVGID_5_" d="M323.9,235.3l-155-89.5c-21.2-12.3-48.4-5-60.7,16.2c-12.3,21.2-5,48.4,16.3,60.7l155,89.5
					c21.2,12.3,48.4,5,60.6-16.2C352.4,274.7,345.2,247.6,323.9,235.3z"/>
			</defs>
			<clipPath id="SVGID_6_">
				<use xlink:href="#SVGID_5_"  style="overflow:visible;"/>
			</clipPath>
			<g class="st4">
				<defs>
					<rect id="SVGID_7_" x="22.7" y="-168.2" width="706.2" height="706.2"/>
				</defs>
				<clipPath id="SVGID_8_">
					<use xlink:href="#SVGID_7_"  style="overflow:visible;"/>
				</clipPath>
				<rect x="172.8" y="88" transform="matrix(0.5 -0.866 0.866 0.5 -86.2154 308.667)" class="st5" width="102.9" height="281.9"/>
			</g>
		</g>
		<g>
			<defs>
				<path id="SVGID_9_" d="M427.6,236.7l155-89.5c21.2-12.3,48.4-5,60.6,16.2c12.3,21.2,5,48.4-16.2,60.7l-155,89.5
					c-21.2,12.3-48.4,5-60.7-16.3C399.1,276.1,406.4,249,427.6,236.7z"/>
			</defs>
			<clipPath id="SVGID_10_">
				<use xlink:href="#SVGID_9_"  style="overflow:visible;"/>
			</clipPath>
			<g class="st6">
				<defs>
					<rect id="SVGID_11_" x="22.7" y="-168.2" width="706.2" height="706.2"/>
				</defs>
				<clipPath id="SVGID_12_">
					<use xlink:href="#SVGID_11_"  style="overflow:visible;"/>
				</clipPath>
				<polygon class="st7" points="379.5,256.3 623.7,115.4 675.1,204.5 431,345.4 				"/>
			</g>
		</g>
		<g>
			<defs>
				<path id="SVGID_13_" d="M473.4,57l155,89.5c21.2,12.3,28.5,39.4,16.3,60.6c-12.2,21.2-39.4,28.5-60.6,16.3l-155-89.5
					c-21.2-12.3-28.5-39.4-16.2-60.6C425,52,452.2,44.7,473.4,57z"/>
			</defs>
			<clipPath id="SVGID_14_">
				<use xlink:href="#SVGID_13_"  style="overflow:visible;"/>
			</clipPath>
			<g class="st8">
				<defs>
					<rect id="SVGID_15_" x="22.7" y="-168.2" width="706.2" height="706.2"/>
				</defs>
				<clipPath id="SVGID_16_">
					<use xlink:href="#SVGID_15_"  style="overflow:visible;"/>
				</clipPath>
				
					<rect x="477.3" y="-0.8" transform="matrix(0.5 -0.866 0.866 0.5 142.952 527.9944)" class="st9" width="102.9" height="281.9"/>
			</g>
		</g>
	</g>
	<path class="st10" d="M755.9,157.8c-8.8-5.1-15.8-12.1-21-21c-5.2-8.9-7.8-18.7-7.8-29.5c0-10.8,2.6-20.6,7.8-29.6
		c5.2-8.9,12.2-15.9,21-21c8.8-5.1,18.4-7.7,28.9-7.7c8.2,0,15.9,1.5,23.1,4.4c7.2,2.9,13.1,7,17.8,12.3l-9.5,9.5
		c-3.5-4.4-8-7.7-13.5-10c-5.5-2.3-11.4-3.5-17.7-3.5c-7.9,0-15.2,1.9-22,5.7c-6.8,3.8-12.2,9.2-16.3,16c-4.1,6.9-6.1,14.8-6.1,23.9
		c0,9,2,17,6.1,23.8c4.1,6.9,9.6,12.3,16.4,16c6.9,3.8,14.2,5.7,21.9,5.7c7.4,0,13.7-1.1,18.7-3.5c5-2.3,9.3-5.4,13-9.3
		c2.7-2.9,4.9-6.4,6.5-10.5c1.6-4.1,2.7-8.6,3.1-13.6h-41.2v-12.3h53.5c0.5,2.9,0.8,5.6,0.8,8.1c0,6.9-1.1,13.5-3.3,20
		c-2.2,6.5-5.7,12.1-10.4,17c-10.2,11.1-23.9,16.6-40.9,16.6C774.4,165.4,764.7,162.8,755.9,157.8z"/>
	<path class="st10" d="M857.6,51.6h33.6c11.4,0,21.3,2.3,29.8,7.1c8.5,4.7,15,11.3,19.6,19.7c4.5,8.4,6.8,18,6.8,28.9
		c0,10.9-2.3,20.5-6.8,28.9c-4.6,8.4-11.1,14.9-19.6,19.7c-8.5,4.7-18.4,7-29.8,7h-33.6V51.6z M891.2,150.3
		c13.2,0,23.6-3.8,31.3-11.3c7.7-7.5,11.6-18.1,11.6-31.7c0-13.6-3.9-24.2-11.6-31.7c-7.7-7.6-18.2-11.3-31.3-11.3h-20.5v86.1H891.2
		z"/>
	<path class="st10" d="M988.8,157.8c-8.8-5.1-15.8-12.1-21-21c-5.2-8.9-7.8-18.7-7.8-29.5c0-10.8,2.6-20.6,7.8-29.6
		c5.2-8.9,12.1-15.9,21-21c8.8-5.1,18.4-7.7,28.9-7.7c8.2,0,15.9,1.5,23.1,4.4c7.2,2.9,13.1,7,17.8,12.3l-9.5,9.5
		c-3.5-4.4-8-7.7-13.5-10c-5.5-2.3-11.4-3.5-17.7-3.5c-7.9,0-15.2,1.9-22,5.7c-6.8,3.8-12.2,9.2-16.3,16c-4.1,6.9-6.1,14.8-6.1,23.9
		c0,9,2,17,6.1,23.8c4.1,6.9,9.6,12.3,16.4,16c6.8,3.8,14.1,5.7,21.9,5.7c7.5,0,13.7-1.1,18.8-3.5c5-2.3,9.4-5.4,13-9.3
		c2.7-2.9,4.9-6.4,6.6-10.5c1.6-4.1,2.7-8.6,3.1-13.6h-41.2v-12.3h53.5c0.5,2.9,0.8,5.6,0.8,8.1c0,6.9-1.1,13.5-3.3,20
		c-2.2,6.5-5.7,12.1-10.4,17c-10.3,11.1-23.9,16.6-40.9,16.6C1007.2,165.4,997.6,162.8,988.8,157.8z"/>
	<path class="st10" d="M755.9,307.2c-8.8-5-15.8-12.1-21-21c-5.2-8.9-7.8-18.7-7.8-29.5c0-10.8,2.6-20.6,7.8-29.5
		c5.2-8.9,12.2-15.9,21-21c8.8-5.1,18.4-7.7,28.9-7.7c8.2,0,15.9,1.5,23.1,4.4c7.2,2.9,13.1,7,17.8,12.3l-9.5,9.5
		c-3.5-4.3-8-7.7-13.5-10c-5.5-2.3-11.4-3.5-17.7-3.5c-7.9,0-15.2,1.9-22,5.6c-6.8,3.8-12.2,9.1-16.3,16c-4.1,6.9-6.1,14.9-6.1,23.9
		c0,9,2,17,6.1,23.9c4.1,6.9,9.6,12.2,16.4,16c6.9,3.8,14.2,5.7,21.9,5.7c7.4,0,13.7-1.2,18.7-3.5c5-2.3,9.3-5.4,13-9.2
		c2.7-2.9,4.9-6.5,6.5-10.5c1.6-4.1,2.7-8.6,3.1-13.6h-41.2v-12.3h53.5c0.5,2.9,0.8,5.6,0.8,8.1c0,6.8-1.1,13.5-3.3,20
		c-2.2,6.5-5.7,12.1-10.4,17c-10.2,11.1-23.9,16.6-40.9,16.6C774.4,314.8,764.7,312.3,755.9,307.2z"/>
	<path class="st10" d="M869.9,309.4c-6-3.6-10.7-8.6-14.1-15c-3.4-6.4-5-13.6-5-21.6c0-7.7,1.6-14.7,4.7-21.1
		c3.2-6.4,7.7-11.6,13.5-15.4c5.8-3.9,12.5-5.8,20.2-5.8c7.8,0,14.5,1.7,20.2,5.2c5.7,3.4,10.1,8.2,13.1,14.4
		c3.1,6.1,4.6,13.1,4.6,21c0,1.5-0.1,2.8-0.4,4H864c0.3,6,1.8,11.1,4.4,15.2c2.6,4.2,5.9,7.3,9.9,9.4c4,2.1,8.2,3.1,12.5,3.1
		c10.2,0,18-4.8,23.5-14.3l11.2,5.4c-3.4,6.4-8.1,11.5-13.9,15.2c-5.8,3.8-12.9,5.6-21.2,5.6C882.7,314.8,875.9,313,869.9,309.4z
		 M913.1,264.3c-0.2-3.3-1.1-6.7-2.8-10c-1.7-3.4-4.3-6.1-7.8-8.4c-3.6-2.3-8.1-3.4-13.5-3.4c-6.2,0-11.5,2-15.8,6
		c-4.3,4-7.1,9.2-8.5,15.8H913.1z"/>
	<path class="st10" d="M956.6,309.2c-6.2-3.7-11.1-8.8-14.5-15.2c-3.5-6.4-5.2-13.5-5.2-21.3c0-7.8,1.7-14.9,5.2-21.3
		c3.5-6.4,8.3-11.5,14.5-15.2c6.2-3.7,13.2-5.6,21-5.6c7.8,0,14.8,1.8,21,5.6c6.2,3.7,11,8.8,14.5,15.2c3.5,6.4,5.2,13.5,5.2,21.3
		c0,7.8-1.7,14.9-5.2,21.3c-3.5,6.4-8.3,11.5-14.5,15.2c-6.2,3.8-13.2,5.6-21,5.6C969.8,314.8,962.9,313,956.6,309.2z M991.2,299.2
		c4.2-2.5,7.6-5.9,10.1-10.5c2.6-4.6,3.8-9.9,3.8-16c0-6.2-1.2-11.5-3.8-16.1c-2.5-4.5-5.9-8-10.1-10.5c-4.2-2.5-8.7-3.7-13.6-3.7
		c-4.9,0-9.4,1.2-13.7,3.7c-4.2,2.4-7.7,5.9-10.2,10.5c-2.5,4.6-3.8,9.9-3.8,16.1c0,6.1,1.3,11.4,3.8,16c2.5,4.5,5.9,8,10.2,10.5
		c4.2,2.5,8.8,3.6,13.7,3.6C982.5,302.8,987,301.7,991.2,299.2z"/>
	<path class="st10" d="M1032.4,233.1h12.6v12.7h0.6c1.5-4.4,4.5-7.9,9-10.8c4.4-2.9,9.1-4.3,14-4.3c3.6,0,6.7,0.5,9.3,1.5v14.3
		c-3.3-1.7-7-2.5-11.2-2.5c-3.8,0-7.3,1-10.5,3.2c-3.2,2.2-5.8,5.1-7.7,8.8c-1.9,3.7-2.9,7.6-2.9,11.9v44.4h-13.2V233.1z"/>
	<path class="st10" d="M1101,341.8c-6.1-4.3-10.1-9.5-12.2-15.7l12-5.1c1.7,4.6,4.7,8.2,8.8,11.2c4.1,2.8,8.9,4.2,14.5,4.2
		c8.2,0,14.5-2.4,19-7.1c4.5-4.8,6.7-11.5,6.7-20.2v-8.8h-0.6c-2.6,4-6.2,7.3-11,9.9c-4.7,2.5-10.1,3.8-16.1,3.8
		c-6.8,0-13.1-1.8-18.7-5.3c-5.7-3.5-10.1-8.5-13.5-14.7c-3.3-6.4-5-13.5-5-21.6c0-8,1.7-15.2,5-21.6c3.3-6.4,7.8-11.3,13.5-14.9
		c5.6-3.5,11.9-5.3,18.7-5.3c6,0,11.4,1.3,16.1,3.8c4.8,2.5,8.4,5.9,11,10.1h0.6v-11.4h12.6v76.1c0,12.8-3.5,22.5-10.6,29.2
		c-7.1,6.7-16.3,10-27.8,10C1114.7,348.4,1107.1,346.2,1101,341.8z M1137,298.4c3.9-2.4,7-5.8,9.3-10.3c2.3-4.5,3.5-9.7,3.5-15.8
		c0-6.2-1.2-11.5-3.5-16.1c-2.3-4.4-5.4-7.8-9.3-10.2c-3.9-2.3-8.2-3.5-13-3.5c-4.8,0-9.1,1.2-13.1,3.6c-3.9,2.4-7.1,5.8-9.4,10.3
		c-2.3,4.4-3.5,9.7-3.5,15.9c0,6.1,1.2,11.4,3.5,15.9c2.3,4.5,5.5,7.9,9.4,10.2c3.9,2.4,8.3,3.5,13.1,3.5
		C1128.8,301.9,1133.2,300.7,1137,298.4z"/>
	<path class="st10" d="M1195.6,309.4c-6-3.6-10.7-8.6-14.1-15c-3.4-6.4-5-13.6-5-21.6c0-7.7,1.6-14.7,4.7-21.1
		c3.2-6.4,7.6-11.6,13.4-15.4c5.8-3.9,12.6-5.8,20.2-5.8c7.8,0,14.5,1.7,20.2,5.2c5.7,3.4,10.1,8.2,13.1,14.4c3,6.1,4.6,13.1,4.6,21
		c0,1.5-0.2,2.8-0.5,4h-62.6c0.3,6,1.7,11.1,4.3,15.2c2.6,4.2,5.9,7.3,9.9,9.4c4,2.1,8.2,3.1,12.5,3.1c10.2,0,18-4.8,23.5-14.3
		l11.2,5.4c-3.4,6.4-8.1,11.5-13.9,15.2c-5.9,3.8-12.9,5.6-21.2,5.6C1208.4,314.8,1201.6,313,1195.6,309.4z M1238.8,264.3
		c-0.2-3.3-1.1-6.7-2.8-10c-1.7-3.4-4.3-6.1-7.9-8.4c-3.6-2.3-8.1-3.4-13.4-3.4c-6.2,0-11.5,2-15.8,6c-4.3,4-7.1,9.2-8.5,15.8
		H1238.8z"/>
	<path class="st10" d="M1327,213.6h-31.3V201h75.6v12.6h-31.1v98.8H1327V213.6z"/>
	<path class="st10" d="M1399.4,309.2c-6.3-3.7-11.1-8.8-14.6-15.2c-3.5-6.4-5.2-13.5-5.2-21.3c0-7.8,1.7-14.9,5.2-21.3
		c3.5-6.4,8.3-11.5,14.6-15.2c6.2-3.7,13.2-5.6,21-5.6c7.8,0,14.8,1.8,21,5.6c6.2,3.7,11,8.8,14.5,15.2c3.5,6.4,5.2,13.5,5.2,21.3
		c0,7.8-1.7,14.9-5.2,21.3c-3.5,6.4-8.3,11.5-14.5,15.2c-6.2,3.8-13.2,5.6-21,5.6C1412.6,314.8,1405.6,313,1399.4,309.2z
		 M1434,299.2c4.2-2.5,7.6-5.9,10.1-10.5c2.5-4.6,3.8-9.9,3.8-16c0-6.2-1.3-11.5-3.8-16.1c-2.5-4.5-5.9-8-10.1-10.5
		c-4.2-2.5-8.8-3.7-13.6-3.7c-4.9,0-9.4,1.2-13.7,3.7c-4.2,2.4-7.6,5.9-10.2,10.5c-2.5,4.6-3.8,9.9-3.8,16.1c0,6.1,1.3,11.4,3.8,16
		c2.5,4.5,5.9,8,10.2,10.5c4.2,2.5,8.8,3.6,13.7,3.6C1425.3,302.8,1429.8,301.7,1434,299.2z"/>
	<path class="st10" d="M1466.4,233.1h13.5l18.9,62.6h0.2l19.9-62.6h13.7l20.1,62.5h0.2l18.8-62.5h13.4l-25.7,79.3H1546l-20.5-63.3
		l-20.4,63.3h-13.2L1466.4,233.1z"/>
	<path class="st10" d="M1594.5,233.1h12.6v11.6h0.6c2.2-3.9,5.7-7.3,10.4-10c4.8-2.8,9.8-4.1,15.2-4.1c9.5,0,16.8,2.7,21.8,8.3
		c5,5.6,7.5,13,7.5,22.6v50.8h-13.2v-48.8c0-7.4-1.8-12.7-5.3-16c-3.5-3.4-8.3-5-14.5-5c-4.3,0-8.1,1.2-11.4,3.6
		c-3.4,2.4-6,5.5-7.9,9.4c-1.9,3.9-2.8,8-2.8,12.2v44.7h-13.2V233.1z"/>
</g>
<g id="Layer_3" class="st0">
	<g class="st11">
		<path class="st12" d="M320.8,235.9l-154.6-89.3c-6.9-4-14.5-5.9-22-5.9c-15.2,0-30,7.9-38.2,22c-12.2,21.1-4.9,48,16.1,60.1
			l154.6,89.3c6.9,4,14.5,5.9,22,5.9c15.2,0,30-7.9,38.2-22C349.1,275,341.9,248.1,320.8,235.9"/>
		<path class="st12" d="M629.1,146.7L474.5,57.4c-6.9-4-14.5-5.9-22-5.9c-15.2,0-30,7.9-38.2,22c-12.2,21.1-4.9,48,16.1,60.1
			l154.6,89.3c6.9,4,14.5,5.9,22,5.9c15.2,0,30-7.9,38.2-22C657.4,185.8,650.2,158.8,629.1,146.7"/>
		<path class="st12" d="M579,233.5l-72.2-41.7l-76.3,44.1c-21.1,12.2-28.3,39.1-16.1,60.1c8.2,14.1,23,22,38.2,22
			c7.5,0,15-1.9,22-5.9l124.3-71.8C591.9,239.4,585.1,237.1,579,233.5"/>
		<path class="st12" d="M172.3,136.1l72.2,41.7l76.3-44.1c21.1-12.2,28.3-39.1,16.1-60.1c-12.2-21.1-39.1-28.3-60.1-16.1
			l-124.3,71.8C159.5,130.2,166.2,132.5,172.3,136.1"/>
		<path class="st12" d="M755.9,157.8c-8.8-5.1-15.8-12.1-21-21c-5.2-8.9-7.8-18.7-7.8-29.5c0-10.8,2.6-20.6,7.8-29.6
			c5.2-8.9,12.2-15.9,21-21c8.8-5.1,18.4-7.7,28.9-7.7c8.2,0,15.9,1.5,23.1,4.4c7.2,2.9,13.1,7,17.8,12.3l-9.5,9.5
			c-3.5-4.4-8-7.7-13.5-10c-5.5-2.3-11.4-3.5-17.7-3.5c-7.9,0-15.2,1.9-22,5.7c-6.8,3.8-12.2,9.2-16.3,16
			c-4.1,6.9-6.1,14.8-6.1,23.9c0,9,2,17,6.1,23.8c4.1,6.9,9.6,12.3,16.4,16c6.9,3.8,14.2,5.7,21.9,5.7c7.4,0,13.7-1.1,18.7-3.5
			c5-2.3,9.3-5.4,13-9.3c2.7-2.9,4.9-6.4,6.5-10.5c1.6-4.1,2.7-8.6,3.1-13.6h-41.2v-12.3h53.5c0.5,2.9,0.8,5.6,0.8,8.1
			c0,6.9-1.1,13.5-3.3,20c-2.2,6.5-5.7,12.1-10.4,17c-10.2,11.1-23.9,16.6-40.9,16.6C774.4,165.4,764.7,162.8,755.9,157.8z"/>
		<path class="st12" d="M857.6,51.6h33.6c11.4,0,21.3,2.3,29.8,7.1c8.5,4.7,15,11.3,19.6,19.7c4.5,8.4,6.8,18,6.8,28.9
			c0,10.9-2.3,20.5-6.8,28.9c-4.6,8.4-11.1,14.9-19.6,19.7c-8.5,4.7-18.4,7-29.8,7h-33.6V51.6z M891.2,150.3
			c13.2,0,23.6-3.8,31.3-11.3c7.7-7.5,11.6-18.1,11.6-31.7c0-13.6-3.9-24.2-11.6-31.7c-7.7-7.6-18.2-11.3-31.3-11.3h-20.5v86.1
			H891.2z"/>
		<path class="st12" d="M988.8,157.8c-8.8-5.1-15.8-12.1-21-21c-5.2-8.9-7.8-18.7-7.8-29.5c0-10.8,2.6-20.6,7.8-29.6
			c5.2-8.9,12.1-15.9,21-21c8.8-5.1,18.4-7.7,28.9-7.7c8.2,0,15.9,1.5,23.1,4.4c7.2,2.9,13.1,7,17.8,12.3l-9.5,9.5
			c-3.5-4.4-8-7.7-13.5-10c-5.5-2.3-11.4-3.5-17.7-3.5c-7.9,0-15.2,1.9-22,5.7c-6.8,3.8-12.2,9.2-16.3,16
			c-4.1,6.9-6.1,14.8-6.1,23.9c0,9,2,17,6.1,23.8c4.1,6.9,9.6,12.3,16.4,16c6.8,3.8,14.1,5.7,21.9,5.7c7.5,0,13.7-1.1,18.8-3.5
			c5-2.3,9.4-5.4,13-9.3c2.7-2.9,4.9-6.4,6.6-10.5c1.6-4.1,2.7-8.6,3.1-13.6h-41.2v-12.3h53.5c0.5,2.9,0.8,5.6,0.8,8.1
			c0,6.9-1.1,13.5-3.3,20c-2.2,6.5-5.7,12.1-10.4,17c-10.3,11.1-23.9,16.6-40.9,16.6C1007.2,165.4,997.6,162.8,988.8,157.8z"/>
		<path class="st12" d="M755.9,307.2c-8.8-5-15.8-12.1-21-21c-5.2-8.9-7.8-18.7-7.8-29.5c0-10.8,2.6-20.6,7.8-29.5
			c5.2-8.9,12.2-15.9,21-21c8.8-5.1,18.4-7.7,28.9-7.7c8.2,0,15.9,1.5,23.1,4.4c7.2,2.9,13.1,7,17.8,12.3l-9.5,9.5
			c-3.5-4.3-8-7.7-13.5-10c-5.5-2.3-11.4-3.5-17.7-3.5c-7.9,0-15.2,1.9-22,5.6c-6.8,3.8-12.2,9.1-16.3,16
			c-4.1,6.9-6.1,14.9-6.1,23.9c0,9,2,17,6.1,23.9c4.1,6.9,9.6,12.2,16.4,16c6.9,3.8,14.2,5.7,21.9,5.7c7.4,0,13.7-1.2,18.7-3.5
			c5-2.3,9.3-5.4,13-9.2c2.7-2.9,4.9-6.5,6.5-10.5c1.6-4.1,2.7-8.6,3.1-13.6h-41.2v-12.3h53.5c0.5,2.9,0.8,5.6,0.8,8.1
			c0,6.8-1.1,13.5-3.3,20c-2.2,6.5-5.7,12.1-10.4,17c-10.2,11.1-23.9,16.6-40.9,16.6C774.4,314.8,764.7,312.3,755.9,307.2z"/>
		<path class="st12" d="M869.9,309.4c-6-3.6-10.7-8.6-14.1-15c-3.4-6.4-5-13.6-5-21.6c0-7.7,1.6-14.7,4.7-21.1
			c3.2-6.4,7.7-11.6,13.5-15.4c5.8-3.9,12.5-5.8,20.2-5.8c7.8,0,14.5,1.7,20.2,5.2c5.7,3.4,10.1,8.2,13.1,14.4
			c3.1,6.1,4.6,13.1,4.6,21c0,1.5-0.1,2.8-0.4,4H864c0.3,6,1.8,11.1,4.4,15.2c2.6,4.2,5.9,7.3,9.9,9.4c4,2.1,8.2,3.1,12.5,3.1
			c10.2,0,18-4.8,23.5-14.3l11.2,5.4c-3.4,6.4-8.1,11.5-13.9,15.2c-5.8,3.8-12.9,5.6-21.2,5.6C882.7,314.8,875.9,313,869.9,309.4z
			 M913.1,264.3c-0.2-3.3-1.1-6.7-2.8-10c-1.7-3.4-4.3-6.1-7.8-8.4c-3.6-2.3-8.1-3.4-13.5-3.4c-6.2,0-11.5,2-15.8,6
			c-4.3,4-7.1,9.2-8.5,15.8H913.1z"/>
		<path class="st12" d="M956.6,309.2c-6.2-3.7-11.1-8.8-14.5-15.2c-3.5-6.4-5.2-13.5-5.2-21.3c0-7.8,1.7-14.9,5.2-21.3
			c3.5-6.4,8.3-11.5,14.5-15.2c6.2-3.7,13.2-5.6,21-5.6c7.8,0,14.8,1.8,21,5.6c6.2,3.7,11,8.8,14.5,15.2c3.5,6.4,5.2,13.5,5.2,21.3
			c0,7.8-1.7,14.9-5.2,21.3c-3.5,6.4-8.3,11.5-14.5,15.2c-6.2,3.8-13.2,5.6-21,5.6C969.8,314.8,962.9,313,956.6,309.2z M991.2,299.2
			c4.2-2.5,7.6-5.9,10.1-10.5c2.6-4.6,3.8-9.9,3.8-16c0-6.2-1.2-11.5-3.8-16.1c-2.5-4.5-5.9-8-10.1-10.5c-4.2-2.5-8.7-3.7-13.6-3.7
			c-4.9,0-9.4,1.2-13.7,3.7c-4.2,2.4-7.7,5.9-10.2,10.5c-2.5,4.6-3.8,9.9-3.8,16.1c0,6.1,1.3,11.4,3.8,16c2.5,4.5,5.9,8,10.2,10.5
			c4.2,2.5,8.8,3.6,13.7,3.6C982.5,302.8,987,301.7,991.2,299.2z"/>
		<path class="st12" d="M1032.4,233.1h12.6v12.7h0.6c1.5-4.4,4.5-7.9,9-10.8c4.4-2.9,9.1-4.3,14-4.3c3.6,0,6.7,0.5,9.3,1.5v14.3
			c-3.3-1.7-7-2.5-11.2-2.5c-3.8,0-7.3,1-10.5,3.2c-3.2,2.2-5.8,5.1-7.7,8.8c-1.9,3.7-2.9,7.6-2.9,11.9v44.4h-13.2V233.1z"/>
		<path class="st12" d="M1101,341.8c-6.1-4.3-10.1-9.5-12.2-15.7l12-5.1c1.7,4.6,4.7,8.2,8.8,11.2c4.1,2.8,8.9,4.2,14.5,4.2
			c8.2,0,14.5-2.4,19-7.1c4.5-4.8,6.7-11.5,6.7-20.2v-8.8h-0.6c-2.6,4-6.2,7.3-11,9.9c-4.7,2.5-10.1,3.8-16.1,3.8
			c-6.8,0-13.1-1.8-18.7-5.3c-5.7-3.5-10.1-8.5-13.5-14.7c-3.3-6.4-5-13.5-5-21.6c0-8,1.7-15.2,5-21.6c3.3-6.4,7.8-11.3,13.5-14.9
			c5.6-3.5,11.9-5.3,18.7-5.3c6,0,11.4,1.3,16.1,3.8c4.8,2.5,8.4,5.9,11,10.1h0.6v-11.4h12.6v76.1c0,12.8-3.5,22.5-10.6,29.2
			c-7.1,6.7-16.3,10-27.8,10C1114.7,348.4,1107.1,346.2,1101,341.8z M1137,298.4c3.9-2.4,7-5.8,9.3-10.3c2.3-4.5,3.5-9.7,3.5-15.8
			c0-6.2-1.2-11.5-3.5-16.1c-2.3-4.4-5.4-7.8-9.3-10.2c-3.9-2.3-8.2-3.5-13-3.5c-4.8,0-9.1,1.2-13.1,3.6c-3.9,2.4-7.1,5.8-9.4,10.3
			c-2.3,4.4-3.5,9.7-3.5,15.9c0,6.1,1.2,11.4,3.5,15.9c2.3,4.5,5.5,7.9,9.4,10.2c3.9,2.4,8.3,3.5,13.1,3.5
			C1128.8,301.9,1133.2,300.7,1137,298.4z"/>
		<path class="st12" d="M1195.6,309.4c-6-3.6-10.7-8.6-14.1-15c-3.4-6.4-5-13.6-5-21.6c0-7.7,1.6-14.7,4.7-21.1
			c3.2-6.4,7.6-11.6,13.4-15.4c5.8-3.9,12.6-5.8,20.2-5.8c7.8,0,14.5,1.7,20.2,5.2c5.7,3.4,10.1,8.2,13.1,14.4
			c3,6.1,4.6,13.1,4.6,21c0,1.5-0.2,2.8-0.5,4h-62.6c0.3,6,1.7,11.1,4.3,15.2c2.6,4.2,5.9,7.3,9.9,9.4c4,2.1,8.2,3.1,12.5,3.1
			c10.2,0,18-4.8,23.5-14.3l11.2,5.4c-3.4,6.4-8.1,11.5-13.9,15.2c-5.9,3.8-12.9,5.6-21.2,5.6C1208.4,314.8,1201.6,313,1195.6,309.4
			z M1238.8,264.3c-0.2-3.3-1.1-6.7-2.8-10c-1.7-3.4-4.3-6.1-7.9-8.4c-3.6-2.3-8.1-3.4-13.4-3.4c-6.2,0-11.5,2-15.8,6
			c-4.3,4-7.1,9.2-8.5,15.8H1238.8z"/>
		<path class="st12" d="M1327,213.6h-31.3V201h75.6v12.6h-31.1v98.8H1327V213.6z"/>
		<path class="st12" d="M1399.4,309.2c-6.3-3.7-11.1-8.8-14.6-15.2c-3.5-6.4-5.2-13.5-5.2-21.3c0-7.8,1.7-14.9,5.2-21.3
			c3.5-6.4,8.3-11.5,14.6-15.2c6.2-3.7,13.2-5.6,21-5.6c7.8,0,14.8,1.8,21,5.6c6.2,3.7,11,8.8,14.5,15.2c3.5,6.4,5.2,13.5,5.2,21.3
			c0,7.8-1.7,14.9-5.2,21.3c-3.5,6.4-8.3,11.5-14.5,15.2c-6.2,3.8-13.2,5.6-21,5.6C1412.6,314.8,1405.6,313,1399.4,309.2z
			 M1434,299.2c4.2-2.5,7.6-5.9,10.1-10.5c2.5-4.6,3.8-9.9,3.8-16c0-6.2-1.3-11.5-3.8-16.1c-2.5-4.5-5.9-8-10.1-10.5
			c-4.2-2.5-8.8-3.7-13.6-3.7c-4.9,0-9.4,1.2-13.7,3.7c-4.2,2.4-7.6,5.9-10.2,10.5c-2.5,4.6-3.8,9.9-3.8,16.1c0,6.1,1.3,11.4,3.8,16
			c2.5,4.5,5.9,8,10.2,10.5c4.2,2.5,8.8,3.6,13.7,3.6C1425.3,302.8,1429.8,301.7,1434,299.2z"/>
		<path class="st12" d="M1466.4,233.1h13.5l18.9,62.6h0.2l19.9-62.6h13.7l20.1,62.5h0.2l18.8-62.5h13.4l-25.7,79.3H1546l-20.5-63.3
			l-20.4,63.3h-13.2L1466.4,233.1z"/>
		<path class="st12" d="M1594.5,233.1h12.6v11.6h0.6c2.2-3.9,5.7-7.3,10.4-10c4.8-2.8,9.8-4.1,15.2-4.1c9.5,0,16.8,2.7,21.8,8.3
			c5,5.6,7.5,13,7.5,22.6v50.8h-13.2v-48.8c0-7.4-1.8-12.7-5.3-16c-3.5-3.4-8.3-5-14.5-5c-4.3,0-8.1,1.2-11.4,3.6
			c-3.4,2.4-6,5.5-7.9,9.4c-1.9,3.9-2.8,8-2.8,12.2v44.7h-13.2V233.1z"/>
	</g>
</g>
</svg>
