<?xml version="1.0" encoding="utf-8"?>
<!-- Generator: Adobe Illustrator 24.1.2, SVG Export Plug-In . SVG Version: 6.00 Build 0)  -->
<svg version="1.1" id="Layer_1" xmlns="http://www.w3.org/2000/svg" xmlns:xlink="http://www.w3.org/1999/xlink" x="0px" y="0px"
	 viewBox="0 0 200 60" style="enable-background:new 0 0 200 60;" xml:space="preserve">
<style type="text/css">
	.st0{display:none;}
	.st1{fill:#CBB677;}
	.st2{display:inline;}
	.st3{fill:#FFFFFF;}
</style>
<g id="Layer_1_1_" class="st0">
</g>
<g id="Layer_2_1_">
	<g>
		<path class="st1" d="M22.2,30.9c-0.3-1-0.7-1.9-1.2-2.6c-0.5-0.7-1.2-1.1-2-1.5c-0.9-0.3-1.7-0.6-2.6-0.6c-1.5,0-2.8,0.4-3.9,1.5
			c-0.8,0.7-1.4,1.7-1.8,3.2H22.2L22.2,30.9z M22.2,35l1.7,0.9c-0.5,1-1.2,2-1.9,2.6c-0.7,0.7-1.5,1.2-2.4,1.5
			c-0.9,0.3-1.9,0.5-3.1,0.5c-2.5,0-4.4-0.9-5.8-2.5c-1.5-1.6-2.1-3.5-2.1-5.5c0-2,0.6-3.7,1.8-5.2c1.5-2,3.5-2.9,6.1-2.9
			s4.7,0.9,6.2,3c1.1,1.4,1.7,3.1,1.7,5.2H10.6c0.1,1.7,0.6,3.2,1.7,4.4s2.5,1.7,4.1,1.7c0.8,0,1.5-0.2,2.3-0.4
			c0.7-0.3,1.4-0.7,1.9-1.1C21,36.7,21.6,36,22.2,35"/>
		<path class="st1" d="M27.4,24.8h2v2.6c0.7-0.9,1.4-1.7,2.1-2.1c0.9-0.6,2-0.9,3.1-0.9c0.7,0,1.5,0.2,2.1,0.4
			c0.7,0.3,1.2,0.7,1.6,1.2c0.4,0.4,0.8,1.2,1.1,2c0.7-1.2,1.5-2,2.5-2.7c0.9-0.7,2-0.9,3.2-0.9c1,0,2,0.3,2.8,0.8
			c0.8,0.5,1.5,1.3,1.8,2.2c0.4,0.9,0.6,2.4,0.6,4.3v8.3h-2v-8.3c0-1.6-0.2-2.8-0.3-3.3c-0.3-0.6-0.7-1.1-1.2-1.5
			c-0.6-0.4-1.2-0.6-2-0.6c-0.9,0-1.8,0.3-2.6,0.9s-1.4,1.3-1.7,2.3c-0.4,0.9-0.5,2.5-0.5,4.7v6h-2v-7.8c0-1.8-0.2-3.1-0.3-3.8
			c-0.3-0.7-0.7-1.2-1.2-1.5c-0.6-0.4-1.2-0.6-2-0.6c-0.9,0-1.7,0.3-2.6,0.9c-0.8,0.5-1.4,1.3-1.7,2.2c-0.4,0.9-0.6,2.3-0.6,4.3v6.3
			h-2L27.4,24.8L27.4,24.8z"/>
		<path class="st1" d="M61.1,26.3c-1.1,0-2,0.3-3.1,0.8c-0.9,0.5-1.7,1.3-2.2,2.3c-0.5,1-0.9,2-0.9,3.1c0,1.1,0.3,2,0.9,3.1
			s1.3,1.7,2.2,2.3c0.9,0.5,2,0.9,3,0.9c1.1,0,2-0.3,3.1-0.9c0.9-0.5,1.7-1.3,2.2-2.2s0.8-2,0.8-3.1c0-1.7-0.6-3.2-1.7-4.4
			C64.3,26.9,62.8,26.3,61.1,26.3 M69,24.8v15.3h-2v-2.6c-0.9,0.9-1.7,1.7-2.8,2.3c-1,0.5-2.1,0.8-3.3,0.8c-2.1,0-4-0.8-5.5-2.3
			c-1.5-1.5-2.3-3.5-2.3-5.7c0-2.2,0.8-4.1,2.3-5.6c1.5-1.5,3.4-2.3,5.5-2.3c1.2,0,2.4,0.3,3.4,0.8c1,0.5,1.9,1.3,2.6,2.4V25
			L69,24.8L69,24.8z"/>
		<path class="st1" d="M72.9,24.8h2v2.7c0.8-1,1.7-1.8,2.6-2.3c0.9-0.5,2-0.8,3.1-0.8c1.2,0,2.1,0.3,3.1,0.9c0.9,0.6,1.5,1.4,2,2.3
			c0.4,0.9,0.7,2.6,0.7,4.6v7.9h-2v-7.2c0-1.7-0.1-2.9-0.2-3.5c-0.3-1-0.7-1.7-1.3-2.3c-0.7-0.5-1.5-0.8-2.6-0.8
			c-1.2,0-2.3,0.4-3.2,1.2c-0.9,0.8-1.5,1.7-1.9,2.9c-0.2,0.8-0.3,2.1-0.3,4.2v5.5h-2L72.9,24.8L72.9,24.8z"/>
		<path class="st1" d="M97,26.3c-1.6,0-3.1,0.6-4.2,1.8c-1.2,1.2-1.7,2.6-1.7,4.4c0,1.1,0.3,2.1,0.8,3.1c0.5,0.9,1.2,1.7,2.1,2.2
			c0.9,0.5,1.9,0.8,3,0.8s2-0.3,3-0.8s1.6-1.2,2.1-2.2c0.5-0.9,0.8-2,0.8-3.1c0-1.7-0.6-3.2-1.7-4.4C100,26.9,98.7,26.3,97,26.3
			 M97,24.4c2.3,0,4.3,0.9,5.8,2.6c1.5,1.5,2.1,3.3,2.1,5.5c0,2.2-0.7,4-2.2,5.5c-1.5,1.6-3.3,2.4-5.7,2.4c-2.3,0-4.3-0.8-5.8-2.4
			c-1.5-1.6-2.2-3.4-2.2-5.5c0-2.1,0.7-3.9,2-5.5C92.7,25.3,94.7,24.4,97,24.4"/>
		<path class="st1" d="M108.1,24.8h2v2.7c0.8-1,1.7-1.8,2.6-2.3c0.9-0.5,2-0.8,3.1-0.8c1.2,0,2.1,0.3,3.1,0.9c0.9,0.6,1.5,1.4,2,2.3
			c0.4,0.9,0.7,2.6,0.7,4.6v7.9h-2v-7.2c0-1.7-0.1-2.9-0.2-3.5c-0.3-1-0.7-1.7-1.3-2.3c-0.7-0.5-1.5-0.8-2.6-0.8
			c-1.2,0-2.3,0.4-3.2,1.2c-0.9,0.8-1.5,1.7-1.9,2.9c-0.2,0.8-0.3,2.1-0.3,4.2v5.5h-2L108.1,24.8L108.1,24.8z"/>
	</g>
</g>
<g id="Layer_3" class="st0">
	<g class="st2">
		<path class="st3" d="M-3,2.2c-8.8-5.1-15.8-12.1-21-21s-7.8-18.7-7.8-29.5s2.6-20.6,7.8-29.6c5.2-8.9,12.2-15.9,21-21
			s18.4-7.7,28.9-7.7c8.2,0,15.9,1.5,23.1,4.4s13.1,7,17.8,12.3l-9.5,9.5c-3.5-4.4-8-7.7-13.5-10s-11.4-3.5-17.7-3.5
			c-7.9,0-15.2,1.9-22,5.7c-6.8,3.8-12.2,9.2-16.3,16c-4.1,6.9-6.1,14.8-6.1,23.9c0,9,2,17,6.1,23.8c4.1,6.9,9.6,12.3,16.4,16
			C11-4.7,18.3-2.8,26-2.8c7.4,0,13.7-1.1,18.7-3.5c5-2.3,9.3-5.4,13-9.3c2.7-2.9,4.9-6.4,6.5-10.5c1.6-4.1,2.7-8.6,3.1-13.6H26.2
			V-52h53.5c0.5,2.9,0.8,5.6,0.8,8.1c0,6.9-1.1,13.5-3.3,20c-2.2,6.5-5.7,12.1-10.4,17C56.5,4.3,42.9,9.8,25.9,9.8
			C15.4,9.8,5.8,7.3-3,2.2z"/>
		<path class="st3" d="M98.6-104h33.6c11.4,0,21.3,2.3,29.8,7.1c8.5,4.7,15,11.3,19.6,19.7c4.5,8.4,6.8,18,6.8,28.9
			s-2.3,20.5-6.8,28.9C177-11,170.5-4.5,162,0.3c-8.5,4.7-18.4,7-29.8,7H98.6V-104z M132.2-5.3c13.2,0,23.6-3.8,31.3-11.3
			s11.6-18.1,11.6-31.7s-3.9-24.2-11.6-31.7c-7.7-7.6-18.2-11.3-31.3-11.3h-20.5v86.1L132.2-5.3L132.2-5.3z"/>
		<path class="st3" d="M-3,151.7c-8.8-5-15.8-12.1-21-21s-7.8-18.7-7.8-29.5s2.6-20.6,7.8-29.5s12.2-15.9,21-21S15.4,43,25.9,43
			c8.2,0,15.9,1.5,23.1,4.4s13.1,7,17.8,12.3l-9.5,9.5c-3.5-4.3-8-7.7-13.5-10s-11.4-3.5-17.7-3.5c-7.9,0-15.2,1.9-22,5.6
			c-6.8,3.8-12.2,9.1-16.3,16s-6.1,14.9-6.1,23.9s2,17,6.1,23.9s9.6,12.2,16.4,16c6.9,3.8,14.2,5.7,21.9,5.7
			c7.4,0,13.7-1.2,18.7-3.5s9.3-5.4,13-9.2c2.7-2.9,4.9-6.5,6.5-10.5c1.6-4.1,2.7-8.6,3.1-13.6H26.2V97.6h53.5
			c0.5,2.9,0.8,5.6,0.8,8.1c0,6.8-1.1,13.5-3.3,20c-2.2,6.5-5.7,12.1-10.4,17c-10.2,11.1-23.9,16.6-40.9,16.6
			C15.4,159.3,5.8,156.8-3,151.7z"/>
	</g>
</g>
</svg>
