<?xml version="1.0" encoding="utf-8"?>
<!-- Generator: Adobe Illustrator 24.1.2, SVG Export Plug-In . SVG Version: 6.00 Build 0)  -->
<svg version="1.1" id="Layer_1" xmlns="http://www.w3.org/2000/svg" xmlns:xlink="http://www.w3.org/1999/xlink" x="0px" y="0px"
	 viewBox="0 0 160 40" style="enable-background:new 0 0 160 40;" xml:space="preserve">
<style type="text/css">
	.st0{display:none;}
	.st1{display:inline;fill:#FFFFFF;}
	.st2{clip-path:url(#SVGID_2_);}
	.st3{clip-path:url(#SVGID_4_);fill:#EA4434;}
	.st4{clip-path:url(#SVGID_6_);}
	.st5{clip-path:url(#SVGID_8_);fill:#547EBE;}
	.st6{clip-path:url(#SVGID_10_);}
	.st7{clip-path:url(#SVGID_12_);fill:#F9BA15;}
	.st8{clip-path:url(#SVGID_14_);}
	.st9{clip-path:url(#SVGID_16_);fill:#0E9D58;}
	.st10{fill:#5F6369;}
	.st11{display:inline;}
	.st12{fill:#FFFFFF;}
</style>
<g id="Layer_1_1_" class="st0">
	<path class="st1" d="M-457.7,70l-153.2-88.5c-6.9-4-14.4-5.9-21.8-5.9c-15.1,0-29.7,7.8-37.8,21.8c-12.1,20.9-4.9,47.6,16,59.6
		l153.2,88.5c6.9,4,14.4,5.9,21.8,5.9c15.1,0,29.7-7.8,37.8-21.8C-429.6,108.7-436.8,82-457.7,70"/>
	<path class="st1" d="M-152.1-18.5L-305.3-107c-6.9-4-14.4-5.9-21.8-5.9c-15.1,0-29.7,7.8-37.8,21.8c-12.1,20.9-4.9,47.6,16,59.6
		L-195.7,57c6.9,4,14.4,5.9,21.8,5.9c15.1,0,29.7-7.8,37.8-21.8C-124.1,20.2-131.2-6.5-152.1-18.5"/>
	<path class="st1" d="M-201.8,67.6l-71.5-41.3L-349,70c-20.9,12-28,38.7-16,59.6c8.1,14,22.7,21.8,37.8,21.8
		c7.4,0,14.9-1.9,21.8-5.9l123.2-71.1C-189,73.4-195.7,71.1-201.8,67.6"/>
	<path class="st1" d="M-604.8-29l71.5,41.3l75.7-43.7c20.9-12,28-38.7,16-59.6c-12.1-20.9-38.7-28-59.6-16l-123.2,71.1
		C-617.6-34.8-610.9-32.5-604.8-29"/>
</g>
<g id="Layer_2_1_">
	<g>
		<g>
			<g>
				<defs>
					<path id="SVGID_1_" d="M18.1,10.8L6.5,17.5c-1.6,0.9-2.1,3-1.2,4.5c0.9,1.6,3,2.1,4.5,1.2l11.5-6.7c1.6-0.9,2.1-3,1.2-4.5
						C21.7,10.5,19.6,9.9,18.1,10.8z"/>
				</defs>
				<clipPath id="SVGID_2_">
					<use xlink:href="#SVGID_1_"  style="overflow:visible;"/>
				</clipPath>
				<g class="st2">
					<g>
						<defs>
							
								<rect id="SVGID_3_" x="-1" y="-11.9" transform="matrix(0.866 -0.5 0.5 0.866 -3.7994 14.5969)" width="52.6" height="52.6"/>
						</defs>
						<clipPath id="SVGID_4_">
							<use xlink:href="#SVGID_3_"  style="overflow:visible;"/>
						</clipPath>
						<rect x="3.4" y="13.2" transform="matrix(0.866 -0.5 0.5 0.866 -6.6494 9.2548)" class="st3" width="21" height="7.7"/>
					</g>
				</g>
			</g>
		</g>
		<g>
			<g>
				<defs>
					<path id="SVGID_5_" d="M21.2,24.2L9.7,17.5c-1.6-0.9-3.6-0.4-4.5,1.2c-0.9,1.6-0.4,3.6,1.2,4.5L17.9,30
						c1.6,0.9,3.6,0.4,4.5-1.2C23.4,27.1,22.9,25.1,21.2,24.2z"/>
				</defs>
				<clipPath id="SVGID_6_">
					<use xlink:href="#SVGID_5_"  style="overflow:visible;"/>
				</clipPath>
				<g class="st4">
					<g>
						<defs>
							
								<rect id="SVGID_7_" x="-9.7" y="-14" transform="matrix(0.5 -0.866 0.866 0.5 -2.3441 20.5485)" width="52.6" height="52.6"/>
						</defs>
						<clipPath id="SVGID_8_">
							<use xlink:href="#SVGID_7_"  style="overflow:visible;"/>
						</clipPath>
						<rect x="10" y="13.2" transform="matrix(0.5 -0.866 0.866 0.5 -13.6289 23.8581)" class="st5" width="7.7" height="21"/>
					</g>
				</g>
			</g>
		</g>
		<g>
			<g>
				<defs>
					<path id="SVGID_9_" d="M29,24.3l11.5-6.7c1.6-0.9,3.6-0.4,4.5,1.2c0.9,1.6,0.4,3.6-1.2,4.5L32.3,30c-1.6,0.9-3.6,0.4-4.5-1.2
						C26.8,27.3,27.4,25.2,29,24.3z"/>
				</defs>
				<clipPath id="SVGID_10_">
					<use xlink:href="#SVGID_9_"  style="overflow:visible;"/>
				</clipPath>
				<g class="st6">
					<g>
						<defs>
							
								<rect id="SVGID_11_" x="-1.4" y="0.2" transform="matrix(0.866 -0.5 0.5 0.866 -9.9254 16.0234)" width="52.6" height="52.6"/>
						</defs>
						<clipPath id="SVGID_12_">
							<use xlink:href="#SVGID_11_"  style="overflow:visible;"/>
						</clipPath>
						<rect x="25.9" y="20" transform="matrix(0.866 -0.5 0.5 0.866 -7.0523 21.3886)" class="st7" width="21" height="7.7"/>
					</g>
				</g>
			</g>
		</g>
		<g>
			<g>
				<defs>
					<path id="SVGID_13_" d="M32.4,10.9l11.5,6.7c1.6,0.9,2.1,3,1.2,4.5c-0.9,1.6-3,2.1-4.5,1.2l-11.5-6.7c-1.6-0.9-2.1-3-1.2-4.5
						C28.8,10.5,30.8,10,32.4,10.9z"/>
				</defs>
				<clipPath id="SVGID_14_">
					<use xlink:href="#SVGID_13_"  style="overflow:visible;"/>
				</clipPath>
				<g class="st8">
					<g>
						<defs>
							
								<rect id="SVGID_15_" x="7.4" y="2.3" transform="matrix(0.5 -0.866 0.866 0.5 -7.9545 43.4878)" width="52.6" height="52.6"/>
						</defs>
						<clipPath id="SVGID_16_">
							<use xlink:href="#SVGID_15_"  style="overflow:visible;"/>
						</clipPath>
						<rect x="32.7" y="6.6" transform="matrix(0.5 -0.866 0.866 0.5 3.4563 40.1782)" class="st9" width="7.7" height="21"/>
					</g>
				</g>
			</g>
		</g>
	</g>
	<path class="st10" d="M53.4,18.4c-0.6-0.4-1.2-0.9-1.6-1.6c-0.4-0.7-0.6-1.4-0.6-2.2s0.2-1.5,0.6-2.2c0.4-0.7,0.9-1.2,1.6-1.6
		c0.6-0.4,1.4-0.6,2.1-0.6c0.6,0,1.2,0.1,1.7,0.3c0.5,0.2,0.9,0.5,1.3,0.9l-0.7,0.7c-0.3-0.3-0.6-0.6-1-0.8
		c-0.4-0.2-0.8-0.3-1.3-0.3c-0.6,0-1.1,0.1-1.6,0.4c-0.5,0.3-0.9,0.7-1.2,1.2c-0.3,0.5-0.4,1.1-0.4,1.8c0,0.7,0.1,1.3,0.4,1.8
		c0.3,0.5,0.7,0.9,1.2,1.2c0.5,0.3,1.1,0.4,1.6,0.4c0.6,0,1-0.1,1.4-0.3c0.4-0.2,0.7-0.4,0.9-0.7c0.2-0.2,0.4-0.5,0.5-0.8
		c0.1-0.3,0.2-0.6,0.3-1h-3.1v-0.9h4c0.1,0.2,0.1,0.4,0.1,0.6c0,0.5-0.1,1-0.3,1.5c-0.2,0.5-0.4,0.9-0.8,1.3c-0.8,0.8-1.8,1.3-3,1.3
		C54.8,19,54.1,18.8,53.4,18.4z"/>
	<path class="st10" d="M61,10.5h2.5c0.8,0,1.6,0.2,2.2,0.5c0.6,0.4,1.1,0.8,1.5,1.5c0.3,0.6,0.5,1.3,0.5,2.1c0,0.8-0.2,1.5-0.5,2.1
		c-0.3,0.6-0.8,1.1-1.5,1.5c-0.6,0.4-1.4,0.5-2.2,0.5H61V10.5z M63.5,17.9c1,0,1.8-0.3,2.3-0.8c0.6-0.6,0.9-1.3,0.9-2.3
		s-0.3-1.8-0.9-2.3c-0.6-0.6-1.3-0.8-2.3-0.8h-1.5V18h1.5V17.9z"/>
	<path class="st10" d="M70.8,18.4c-0.6-0.4-1.2-0.9-1.6-1.6c-0.4-0.7-0.6-1.4-0.6-2.2s0.2-1.5,0.6-2.2c0.4-0.7,0.9-1.2,1.6-1.6
		c0.6-0.4,1.4-0.6,2.1-0.6c0.6,0,1.2,0.1,1.7,0.3c0.5,0.2,0.9,0.5,1.3,0.9l-0.7,0.7c-0.3-0.3-0.6-0.6-1-0.8
		c-0.4-0.2-0.8-0.3-1.3-0.3c-0.6,0-1.1,0.1-1.6,0.4c-0.5,0.3-0.9,0.7-1.2,1.2c-0.3,0.5-0.4,1.1-0.4,1.8c0,0.7,0.1,1.3,0.4,1.8
		s0.7,0.9,1.2,1.2c0.5,0.3,1.1,0.4,1.6,0.4c0.6,0,1-0.1,1.4-0.3c0.4-0.2,0.7-0.4,0.9-0.7c0.2-0.2,0.4-0.5,0.5-0.8
		c0.1-0.3,0.2-0.6,0.3-1h-3.1v-0.9h4c0.1,0.2,0.1,0.4,0.1,0.6c0,0.5-0.1,1-0.3,1.5c-0.2,0.5-0.4,0.9-0.8,1.3c-0.8,0.8-1.8,1.3-3,1.3
		C72.1,19,71.4,18.8,70.8,18.4z"/>
	<path class="st10" d="M53.4,29.6c-0.6-0.4-1.2-0.9-1.6-1.6c-0.4-0.7-0.6-1.4-0.6-2.2c0-0.8,0.2-1.5,0.6-2.2
		c0.4-0.7,0.9-1.2,1.6-1.6c0.6-0.4,1.4-0.6,2.1-0.6c0.6,0,1.2,0.1,1.7,0.3c0.5,0.2,0.9,0.5,1.3,0.9l-0.7,0.8c-0.3-0.3-0.6-0.6-1-0.8
		c-0.4-0.2-0.8-0.3-1.3-0.3c-0.6,0-1.1,0.1-1.6,0.4c-0.5,0.3-0.9,0.7-1.2,1.2c-0.3,0.5-0.4,1.1-0.4,1.8c0,0.7,0.1,1.3,0.4,1.8
		c0.3,0.5,0.7,0.9,1.2,1.2c0.5,0.3,1.1,0.4,1.6,0.4s1-0.1,1.4-0.3c0.4-0.2,0.7-0.4,0.9-0.7c0.2-0.2,0.4-0.5,0.5-0.8
		c0.1-0.3,0.2-0.6,0.3-1h-3.1v-0.9h4c0.1,0.2,0.1,0.4,0.1,0.6c0,0.5-0.1,1-0.3,1.5c-0.2,0.5-0.4,0.9-0.8,1.3c-0.8,0.8-1.8,1.3-3,1.3
		C54.8,30.2,54.1,30,53.4,29.6z"/>
	<path class="st10" d="M61.9,29.7c-0.4-0.3-0.8-0.6-1.1-1.1c-0.3-0.5-0.4-1-0.4-1.6c0-0.6,0.1-1.1,0.4-1.6c0.3-0.5,0.6-0.9,1-1.1
		c0.4-0.3,0.9-0.4,1.5-0.4c0.6,0,1.1,0.1,1.5,0.4c0.4,0.3,0.8,0.6,1,1.1c0.3,0.4,0.3,0.9,0.3,1.6c0,0.1,0,0.2,0,0.3h-4.7
		c0,0.4,0.1,0.8,0.3,1.1c0.2,0.3,0.4,0.6,0.8,0.7c0.3,0.1,0.6,0.3,0.9,0.3c0.8,0,1.3-0.4,1.8-1.1l0.8,0.4c-0.3,0.5-0.6,0.9-1,1.1
		c-0.4,0.3-0.9,0.4-1.6,0.4C62.8,30.2,62.3,30,61.9,29.7z M65.1,26.4c0-0.3-0.1-0.5-0.2-0.8s-0.3-0.4-0.6-0.6s-0.6-0.3-1-0.3
		c-0.4,0-0.9,0.1-1.2,0.4c-0.3,0.3-0.5,0.7-0.6,1.2H65.1z"/>
	<path class="st10" d="M68.4,29.7c-0.4-0.3-0.8-0.6-1.1-1.1c-0.3-0.5-0.4-1-0.4-1.6c0-0.6,0.1-1.1,0.4-1.6c0.3-0.5,0.6-0.9,1.1-1.1
		c0.4-0.3,1-0.4,1.6-0.4c0.6,0,1.1,0.1,1.6,0.4c0.4,0.3,0.8,0.6,1.1,1.1c0.3,0.5,0.4,1,0.4,1.6c0,0.6-0.1,1.1-0.4,1.6
		c-0.3,0.5-0.6,0.9-1.1,1.1c-0.4,0.3-1,0.4-1.6,0.4C69.3,30.2,68.8,30,68.4,29.7z M70.9,29c0.3-0.2,0.6-0.4,0.8-0.8
		c0.2-0.3,0.3-0.8,0.3-1.2c0-0.4-0.1-0.9-0.3-1.2c-0.2-0.3-0.4-0.6-0.8-0.8c-0.3-0.2-0.6-0.3-1-0.3s-0.7,0.1-1,0.3
		c-0.3,0.2-0.6,0.4-0.8,0.8c-0.2,0.3-0.3,0.8-0.3,1.2c0,0.4,0.1,0.9,0.3,1.2c0.2,0.3,0.4,0.6,0.8,0.8c0.3,0.2,0.6,0.3,1,0.3
		S70.6,29.1,70.9,29z"/>
	<path class="st10" d="M74,24h0.9V25H75c0.1-0.3,0.3-0.6,0.7-0.8c0.3-0.2,0.7-0.3,1.1-0.3c0.3,0,0.5,0.1,0.7,0.1V25
		c-0.3-0.1-0.5-0.2-0.8-0.2c-0.3,0-0.6,0.1-0.8,0.3c-0.3,0.2-0.4,0.4-0.6,0.6s-0.2,0.6-0.2,0.9v3.3h-1V24H74z"/>
	<path class="st10" d="M79.1,32.1c-0.4-0.3-0.8-0.7-0.9-1.2l0.9-0.4c0.1,0.3,0.4,0.6,0.6,0.8c0.3,0.2,0.7,0.3,1.1,0.3
		c0.6,0,1.1-0.2,1.4-0.5c0.3-0.4,0.5-0.9,0.5-1.5V29h-0.1c-0.2,0.3-0.4,0.6-0.8,0.8c-0.4,0.2-0.8,0.3-1.2,0.3
		c-0.5,0-0.9-0.1-1.4-0.4c-0.4-0.3-0.8-0.6-1-1.1c-0.3-0.5-0.4-1-0.4-1.6c0-0.6,0.1-1.1,0.4-1.6c0.3-0.5,0.6-0.8,1-1.1
		c0.4-0.3,0.9-0.4,1.4-0.4c0.4,0,0.8,0.1,1.2,0.3c0.4,0.2,0.6,0.4,0.8,0.8h0.1V24h0.9v5.7c0,0.9-0.3,1.7-0.8,2.1
		c-0.5,0.5-1.2,0.8-2.1,0.8C80.1,32.6,79.5,32.5,79.1,32.1z M81.8,28.9c0.3-0.2,0.5-0.4,0.7-0.8c0.2-0.3,0.3-0.8,0.3-1.2
		c0-0.4-0.1-0.9-0.3-1.2c-0.2-0.3-0.4-0.6-0.7-0.8c-0.3-0.2-0.6-0.3-0.9-0.3c-0.4,0-0.7,0.1-0.9,0.3c-0.3,0.2-0.5,0.4-0.7,0.8
		C79,26.1,79,26.4,79,26.9c0,0.4,0.1,0.8,0.3,1.2c0.2,0.3,0.4,0.6,0.7,0.8c0.3,0.2,0.6,0.3,0.9,0.3C81.2,29.1,81.5,29.1,81.8,28.9z"
		/>
	<path class="st10" d="M86.2,29.7c-0.4-0.3-0.8-0.6-1.1-1.1c-0.3-0.5-0.4-1-0.4-1.6c0-0.6,0.1-1.1,0.4-1.6c0.3-0.5,0.6-0.9,1-1.1
		c0.4-0.3,0.9-0.4,1.5-0.4s1.1,0.1,1.5,0.4c0.4,0.3,0.8,0.6,1,1.1c0.3,0.4,0.3,0.9,0.3,1.6c0,0.1,0,0.2-0.1,0.3h-4.7
		c0,0.4,0.1,0.8,0.3,1.1c0.2,0.3,0.4,0.6,0.8,0.7c0.3,0.1,0.6,0.3,0.9,0.3c0.8,0,1.3-0.4,1.8-1.1l0.8,0.4c-0.3,0.5-0.6,0.9-1,1.1
		c-0.4,0.3-0.9,0.4-1.6,0.4C87.1,30.2,86.6,30,86.2,29.7z M89.4,26.4c0-0.3-0.1-0.5-0.2-0.8c-0.1-0.3-0.3-0.4-0.6-0.6
		c-0.3-0.2-0.6-0.3-1-0.3c-0.4,0-0.9,0.1-1.2,0.4c-0.3,0.3-0.5,0.7-0.6,1.2H89.4z"/>
	<path class="st10" d="M95.9,22.6h-2.3v-0.9h5.6v0.9h-2.3V30h-1L95.9,22.6L95.9,22.6z"/>
	<path class="st10" d="M101.3,29.7c-0.4-0.3-0.8-0.6-1.1-1.1c-0.3-0.5-0.4-1-0.4-1.6c0-0.6,0.1-1.1,0.4-1.6c0.3-0.5,0.6-0.9,1.1-1.1
		c0.4-0.3,1-0.4,1.6-0.4s1.1,0.1,1.6,0.4c0.4,0.3,0.8,0.6,1.1,1.1c0.3,0.5,0.4,1,0.4,1.6c0,0.6-0.1,1.1-0.4,1.6
		c-0.3,0.5-0.6,0.9-1.1,1.1c-0.4,0.3-1,0.4-1.6,0.4C102.3,30.2,101.8,30,101.3,29.7z M103.9,29c0.3-0.2,0.6-0.4,0.8-0.8
		c0.2-0.3,0.3-0.8,0.3-1.2c0-0.4-0.1-0.9-0.3-1.2c-0.2-0.3-0.4-0.6-0.8-0.8c-0.3-0.2-0.6-0.3-1-0.3c-0.4,0-0.7,0.1-1,0.3
		c-0.3,0.2-0.6,0.4-0.8,0.8c-0.2,0.3-0.3,0.8-0.3,1.2c0,0.4,0.1,0.9,0.3,1.2c0.2,0.3,0.4,0.6,0.8,0.8c0.3,0.2,0.6,0.3,1,0.3
		C103.2,29.2,103.6,29.1,103.9,29z"/>
	<path class="st10" d="M106.3,24h1l1.4,4.7l0,0l1.5-4.7h1l1.5,4.7l0,0l1.4-4.7h1l-1.9,5.9h-1l-1.5-4.7l-1.5,4.7h-1L106.3,24z"/>
	<path class="st10" d="M115.8,24h0.9v0.9h0.1c0.2-0.3,0.4-0.6,0.8-0.8c0.4-0.2,0.8-0.3,1.1-0.3c0.7,0,1.3,0.2,1.6,0.6
		c0.4,0.4,0.6,0.9,0.6,1.7V30h-1v-3.7c0-0.6-0.1-0.9-0.4-1.2c-0.3-0.3-0.6-0.4-1.1-0.4c-0.3,0-0.6,0.1-0.8,0.3
		c-0.3,0.2-0.4,0.4-0.6,0.7c-0.1,0.3-0.2,0.6-0.2,0.9v3.3h-1L115.8,24L115.8,24z"/>
</g>
<g id="Layer_3" class="st0">
	<g class="st11">
		<path class="st12" d="M-458.2,70.4l-154.6-89.3c-6.9-4-14.5-5.9-22-5.9c-15.2,0-30,7.9-38.2,22c-12.2,21.1-4.9,48,16.1,60.1
			l154.6,89.3c6.9,4,14.5,5.9,22,5.9c15.2,0,30-7.9,38.2-22C-429.9,109.5-437.1,82.6-458.2,70.4"/>
		<path class="st12" d="M-149.8-18.9l-154.6-89.3c-6.9-4-14.5-5.9-22-5.9c-15.2,0-30,7.9-38.2,22c-12.2,21.1-4.9,48,16.1,60.1
			l154.6,89.3c6.9,4,14.5,5.9,22,5.9c15.2,0,30-7.9,38.2-22C-121.6,20.2-128.8-6.7-149.8-18.9"/>
		<path class="st12" d="M-200,68l-72.2-41.7l-76.3,44.1c-21.1,12.2-28.3,39.1-16.1,60.1c8.2,14.1,23,22,38.2,22c7.5,0,15-1.9,22-5.9
			l124.3-71.8C-187.1,73.9-193.8,71.5-200,68"/>
		<path class="st12" d="M-606.6-29.5l72.2,41.7l76.3-44.1c21-12.1,28.2-39,16.1-60.1c-12.2-21.1-39.1-28.3-60.1-16.1l-124.3,71.8
			C-619.5-35.3-612.8-33-606.6-29.5"/>
		<path class="st12" d="M-23-7.8c-8.8-5.1-15.8-12.1-21-21s-7.8-18.7-7.8-29.5s2.6-20.6,7.8-29.6c5.2-8.9,12.2-15.9,21-21
			s18.4-7.7,28.9-7.7c8.2,0,15.9,1.5,23.1,4.4s13.1,7,17.8,12.3l-9.5,9.5c-3.5-4.4-8-7.7-13.5-10s-11.4-3.5-17.7-3.5
			c-7.9,0-15.2,1.9-22,5.7c-6.8,3.8-12.2,9.2-16.3,16c-4.1,6.9-6.1,14.8-6.1,23.9c0,9,2,17,6.1,23.8c4.1,6.9,9.6,12.3,16.4,16
			C-9-14.7-1.7-12.8,6-12.8c7.4,0,13.7-1.1,18.7-3.5c5-2.3,9.3-5.4,13-9.3c2.7-2.9,4.9-6.4,6.5-10.5c1.6-4.1,2.7-8.6,3.1-13.6H6.2
			V-62h53.5c0.5,2.9,0.8,5.6,0.8,8.1c0,6.9-1.1,13.5-3.3,20c-2.2,6.5-5.7,12.1-10.4,17C36.5-5.7,22.9-0.2,5.9-0.2
			C-4.6-0.2-14.2-2.7-23-7.8z"/>
		<path class="st12" d="M78.6-114h33.6c11.4,0,21.3,2.3,29.8,7.1c8.5,4.7,15,11.3,19.6,19.7c4.5,8.4,6.8,18,6.8,28.9
			s-2.3,20.5-6.8,28.9C157-21,150.5-14.5,142-9.7c-8.5,4.7-18.4,7-29.8,7H78.6V-114z M112.2-15.3c13.2,0,23.6-3.8,31.3-11.3
			s11.6-18.1,11.6-31.7s-3.9-24.2-11.6-31.7c-7.7-7.6-18.2-11.3-31.3-11.3H91.7v86.1L112.2-15.3L112.2-15.3z"/>
		<path class="st12" d="M209.9-7.8c-8.8-5.1-15.8-12.1-21-21s-7.8-18.7-7.8-29.5s2.6-20.6,7.8-29.6c5.2-8.9,12.1-15.9,21-21
			c8.8-5.1,18.4-7.7,28.9-7.7c8.2,0,15.9,1.5,23.1,4.4s13.1,7,17.8,12.3l-9.5,9.5c-3.5-4.4-8-7.7-13.5-10s-11.4-3.5-17.7-3.5
			c-7.9,0-15.2,1.9-22,5.7c-6.8,3.8-12.2,9.2-16.3,16c-4.1,6.9-6.1,14.8-6.1,23.9c0,9,2,17,6.1,23.8c4.1,6.9,9.6,12.3,16.4,16
			c6.8,3.8,14.1,5.7,21.9,5.7c7.5,0,13.7-1.1,18.8-3.5c5-2.3,9.4-5.4,13-9.3c2.7-2.9,4.9-6.4,6.6-10.5c1.6-4.1,2.7-8.6,3.1-13.6
			h-41.2V-62h53.5c0.5,2.9,0.8,5.6,0.8,8.1c0,6.9-1.1,13.5-3.3,20c-2.2,6.5-5.7,12.1-10.4,17C269.4-5.7,255.8-0.2,238.8-0.2
			C228.3-0.2,218.6-2.7,209.9-7.8z"/>
		<path class="st12" d="M-23,141.7c-8.8-5-15.8-12.1-21-21s-7.8-18.7-7.8-29.5s2.6-20.6,7.8-29.5s12.2-15.9,21-21S-4.6,33,5.9,33
			c8.2,0,15.9,1.5,23.1,4.4s13.1,7,17.8,12.3l-9.5,9.5c-3.5-4.3-8-7.7-13.5-10s-11.4-3.5-17.7-3.5c-7.9,0-15.2,1.9-22,5.6
			c-6.8,3.8-12.2,9.1-16.3,16s-6.1,14.9-6.1,23.9s2,17,6.1,23.9s9.6,12.2,16.4,16c6.9,3.8,14.2,5.7,21.9,5.7
			c7.4,0,13.7-1.2,18.7-3.5s9.3-5.4,13-9.2c2.7-2.9,4.9-6.5,6.5-10.5c1.6-4.1,2.7-8.6,3.1-13.6H6.2V87.6h53.5
			c0.5,2.9,0.8,5.6,0.8,8.1c0,6.8-1.1,13.5-3.3,20c-2.2,6.5-5.7,12.1-10.4,17c-10.2,11.1-23.9,16.6-40.9,16.6
			C-4.6,149.3-14.2,146.8-23,141.7z"/>
		<path class="st12" d="M90.9,143.9c-6-3.6-10.7-8.6-14.1-15s-5-13.6-5-21.6c0-7.7,1.6-14.7,4.7-21.1c3.2-6.4,7.7-11.6,13.5-15.4
			c5.8-3.9,12.5-5.8,20.2-5.8c7.8,0,14.5,1.7,20.2,5.2c5.7,3.4,10.1,8.2,13.1,14.4c3.1,6.1,4.6,13.1,4.6,21c0,1.5-0.1,2.8-0.4,4H85
			c0.3,6,1.8,11.1,4.4,15.2c2.6,4.2,5.9,7.3,9.9,9.4c4,2.1,8.2,3.1,12.5,3.1c10.2,0,18-4.8,23.5-14.3l11.2,5.4
			c-3.4,6.4-8.1,11.5-13.9,15.2c-5.8,3.8-12.9,5.6-21.2,5.6C103.7,149.3,96.9,147.5,90.9,143.9z M134.1,98.8
			c-0.2-3.3-1.1-6.7-2.8-10c-1.7-3.4-4.3-6.1-7.8-8.4c-3.6-2.3-8.1-3.4-13.5-3.4c-6.2,0-11.5,2-15.8,6s-7.1,9.2-8.5,15.8H134.1z"/>
		<path class="st12" d="M177.7,143.7c-6.2-3.7-11.1-8.8-14.5-15.2c-3.5-6.4-5.2-13.5-5.2-21.3s1.7-14.9,5.2-21.3s8.3-11.5,14.5-15.2
			s13.2-5.6,21-5.6s14.8,1.8,21,5.6c6.2,3.7,11,8.8,14.5,15.2c3.5,6.4,5.2,13.5,5.2,21.3s-1.7,14.9-5.2,21.3
			c-3.5,6.4-8.3,11.5-14.5,15.2c-6.2,3.8-13.2,5.6-21,5.6S183.9,147.4,177.7,143.7z M212.3,133.7c4.2-2.5,7.6-5.9,10.1-10.5
			c2.6-4.6,3.8-9.9,3.8-16c0-6.2-1.2-11.5-3.8-16.1c-2.5-4.5-5.9-8-10.1-10.5c-4.2-2.5-8.7-3.7-13.6-3.7c-4.9,0-9.4,1.2-13.7,3.7
			c-4.2,2.4-7.7,5.9-10.2,10.5s-3.8,9.9-3.8,16.1c0,6.1,1.3,11.4,3.8,16c2.5,4.5,5.9,8,10.2,10.5c4.2,2.5,8.8,3.6,13.7,3.6
			C203.5,137.3,208.1,136.2,212.3,133.7z"/>
		<path class="st12" d="M253.4,67.5H266v12.7h0.6c1.5-4.4,4.5-7.9,9-10.8c4.4-2.9,9.1-4.3,14-4.3c3.6,0,6.7,0.5,9.3,1.5v14.3
			c-3.3-1.7-7-2.5-11.2-2.5c-3.8,0-7.3,1-10.5,3.2s-5.8,5.1-7.7,8.8c-1.9,3.7-2.9,7.6-2.9,11.9v44.4h-13.2L253.4,67.5L253.4,67.5z"
			/>
		<path class="st12" d="M322,176.3c-6.1-4.3-10.1-9.5-12.2-15.7l12-5.1c1.7,4.6,4.7,8.2,8.8,11.2c4.1,2.8,8.9,4.2,14.5,4.2
			c8.2,0,14.5-2.4,19-7.1c4.5-4.8,6.7-11.5,6.7-20.2v-8.8h-0.6c-2.6,4-6.2,7.3-11,9.9c-4.7,2.5-10.1,3.8-16.1,3.8
			c-6.8,0-13.1-1.8-18.7-5.3c-5.7-3.5-10.1-8.5-13.5-14.7c-3.3-6.4-5-13.5-5-21.6c0-8,1.7-15.2,5-21.6s7.8-11.3,13.5-14.9
			c5.6-3.5,11.9-5.3,18.7-5.3c6,0,11.4,1.3,16.1,3.8c4.8,2.5,8.4,5.9,11,10.1h0.6V67.5h12.6v76.1c0,12.8-3.5,22.5-10.6,29.2
			s-16.3,10-27.8,10C335.8,182.9,328.1,180.7,322,176.3z M358.1,132.8c3.9-2.4,7-5.8,9.3-10.3s3.5-9.7,3.5-15.8
			c0-6.2-1.2-11.5-3.5-16.1c-2.3-4.4-5.4-7.8-9.3-10.2c-3.9-2.3-8.2-3.5-13-3.5s-9.1,1.2-13.1,3.6c-3.9,2.4-7.1,5.8-9.4,10.3
			c-2.3,4.4-3.5,9.7-3.5,15.9c0,6.1,1.2,11.4,3.5,15.9s5.5,7.9,9.4,10.2c3.9,2.4,8.3,3.5,13.1,3.5
			C349.9,136.4,354.2,135.2,358.1,132.8z"/>
		<path class="st12" d="M416.6,143.9c-6-3.6-10.7-8.6-14.1-15s-5-13.6-5-21.6c0-7.7,1.6-14.7,4.7-21.1c3.2-6.4,7.6-11.6,13.4-15.4
			c5.8-3.9,12.6-5.8,20.2-5.8c7.8,0,14.5,1.7,20.2,5.2c5.7,3.4,10.1,8.2,13.1,14.4c3,6.1,4.6,13.1,4.6,21c0,1.5-0.2,2.8-0.5,4h-62.6
			c0.3,6,1.7,11.1,4.3,15.2c2.6,4.2,5.9,7.3,9.9,9.4c4,2.1,8.2,3.1,12.5,3.1c10.2,0,18-4.8,23.5-14.3l11.2,5.4
			c-3.4,6.4-8.1,11.5-13.9,15.2c-5.9,3.8-12.9,5.6-21.2,5.6C429.4,149.3,422.6,147.5,416.6,143.9z M459.8,98.8
			c-0.2-3.3-1.1-6.7-2.8-10c-1.7-3.4-4.3-6.1-7.9-8.4S441,77,435.7,77c-6.2,0-11.5,2-15.8,6s-7.1,9.2-8.5,15.8H459.8z"/>
		<path class="st12" d="M548,48.1h-31.3V35.5h75.6v12.6h-31.1v98.8H548V48.1z"/>
		<path class="st12" d="M620.5,143.7c-6.3-3.7-11.1-8.8-14.6-15.2s-5.2-13.5-5.2-21.3s1.7-14.9,5.2-21.3s8.3-11.5,14.6-15.2
			c6.2-3.7,13.2-5.6,21-5.6s14.8,1.8,21,5.6c6.2,3.7,11,8.8,14.5,15.2c3.5,6.4,5.2,13.5,5.2,21.3s-1.7,14.9-5.2,21.3
			c-3.5,6.4-8.3,11.5-14.5,15.2c-6.2,3.8-13.2,5.6-21,5.6S626.6,147.4,620.5,143.7z M655.1,133.7c4.2-2.5,7.6-5.9,10.1-10.5
			s3.8-9.9,3.8-16c0-6.2-1.3-11.5-3.8-16.1c-2.5-4.5-5.9-8-10.1-10.5c-4.2-2.5-8.8-3.7-13.6-3.7c-4.9,0-9.4,1.2-13.7,3.7
			c-4.2,2.4-7.6,5.9-10.2,10.5c-2.5,4.6-3.8,9.9-3.8,16.1c0,6.1,1.3,11.4,3.8,16c2.5,4.5,5.9,8,10.2,10.5c4.2,2.5,8.8,3.6,13.7,3.6
			C646.3,137.3,650.8,136.2,655.1,133.7z"/>
		<path class="st12" d="M687.5,67.5H701l18.9,62.6h0.2L740,67.5h13.7l20.1,62.5h0.2l18.8-62.5h13.4l-25.7,79.3H767l-20.5-63.3
			l-20.4,63.3h-13.2L687.5,67.5z"/>
		<path class="st12" d="M815.6,67.5h12.6v11.6h0.6c2.2-3.9,5.7-7.3,10.4-10c4.8-2.8,9.8-4.1,15.2-4.1c9.5,0,16.8,2.7,21.8,8.3
			c5,5.6,7.5,13,7.5,22.6v50.8h-13.2V98c0-7.4-1.8-12.7-5.3-16c-3.5-3.4-8.3-5-14.5-5c-4.3,0-8.1,1.2-11.4,3.6
			c-3.4,2.4-6,5.5-7.9,9.4s-2.8,8-2.8,12.2v44.7h-13.2V67.5H815.6z"/>
	</g>
</g>
</svg>
