<?xml version="1.0" encoding="utf-8"?>
<!-- Generator: Adobe Illustrator 24.1.2, SVG Export Plug-In . SVG Version: 6.00 Build 0)  -->
<svg version="1.1" id="Layer_1" xmlns="http://www.w3.org/2000/svg" xmlns:xlink="http://www.w3.org/1999/xlink" x="0px" y="0px"
	 viewBox="0 0 200 60" style="enable-background:new 0 0 200 60;" xml:space="preserve">
<style type="text/css">
	.st0{display:none;}
	.st1{clip-path:url(#SVGID_2_);fill:url(#SVGID_3_);}
	.st2{fill:#00C0A5;}
	.st3{display:inline;}
	.st4{fill:#FFFFFF;}
</style>
<g id="Layer_1_1_" class="st0">
</g>
<g id="Layer_2_1_">
	<g>
		<g>
			<g>
				<g>
					<g>
						<defs>
							<path id="SVGID_1_" d="M22.8,35.4l-0.9,2.3L21,35.4h-1.1v3.8h0.7v-2.6l1.1,2.6h0.4l1.1-2.6v2.6H24v-3.8
								C23.9,35.4,22.8,35.4,22.8,35.4z M10.1,37.2c0-0.7,0.5-1.3,1.2-1.3s1.2,0.5,1.2,1.3s-0.5,1.3-1.2,1.3S10.1,37.9,10.1,37.2
								 M9.2,37.2c0,1.2,0.8,1.9,2,1.9s2-0.8,2-1.9c0-1.2-0.8-1.9-2-1.9S9.2,36.1,9.2,37.2 M15.3,37.2c0-0.7,0.5-1.3,1.2-1.3
								c0.7,0,1.2,0.5,1.2,1.3s-0.5,1.3-1.2,1.3C15.8,38.5,15.3,37.9,15.3,37.2 M14.5,37.2c0,1.2,0.8,1.9,2,1.9s2-0.8,2-1.9
								c0-1.2-0.8-1.9-2-1.9S14.5,36.1,14.5,37.2 M9.9,30.3v3.8h2.6v-0.7h-1.9v-0.8h1.8v-0.7h-1.8V31h1.9v-0.7L9.9,30.3L9.9,30.3z
								 M17.4,30.3v2.4l-1.7-2.4h-0.8v3.8h0.8v-2.5l1.8,2.5h0.8v-3.8C18.3,30.3,17.4,30.3,17.4,30.3z M21.2,31H22
								c0.4,0,0.5,0.2,0.5,0.5c0,0.3-0.3,0.5-0.5,0.5h-0.8V31z M20.4,30.3v3.8h0.8v-1.4h0.5l0.7,1.4h0.9l-0.8-1.5
								c0.4-0.1,0.8-0.5,0.8-1.1c0-0.7-0.5-1.2-1.3-1.2C22.2,30.3,20.4,30.3,20.4,30.3z M15.8,26h0.8c0.4,0,0.5,0.2,0.5,0.5
								c0,0.4-0.3,0.5-0.5,0.5h-0.8C15.8,27,15.8,26,15.8,26z M15,25.2v3.8h0.8v-1.4h0.5l0.7,1.4H18l-0.8-1.5
								c0.4-0.1,0.8-0.5,0.8-1.1c0-0.7-0.5-1.2-1.3-1.2C16.7,25.2,15,25.2,15,25.2z M20.5,25.2v3.8h2.6v-0.7h-1.9v-0.8h1.8v-0.8
								h-1.8v-0.8h1.9v-0.7L20.5,25.2L20.5,25.2z M9.4,27.2c0,1.2,0.9,2,2,2c0.7,0,1.2-0.3,1.6-0.7V27h-1.8v0.6h1v0.5
								c-0.2,0.2-0.5,0.3-0.8,0.3c-0.7,0-1.2-0.5-1.2-1.3c0-0.7,0.5-1.3,1.2-1.3c0.4,0,0.7,0.2,0.9,0.5l0.6-0.4
								c-0.3-0.5-0.8-0.8-1.5-0.8C10.2,25.2,9.4,26,9.4,27.2 M5.5,21.1h22.2v22.2H5.5V21.1z M4.4,44.3h24.3V20H4.4V44.3z"/>
						</defs>
						<clipPath id="SVGID_2_">
							<use xlink:href="#SVGID_1_"  style="overflow:visible;"/>
						</clipPath>
						
							<linearGradient id="SVGID_3_" gradientUnits="userSpaceOnUse" x1="-330.7316" y1="-324.2496" x2="-330.6736" y2="-324.2496" gradientTransform="matrix(420 420 -420 420 2726.8906 275112.125)">
							<stop  offset="0" style="stop-color:#07E1FD"/>
							<stop  offset="0.2456" style="stop-color:#05D6DF"/>
							<stop  offset="0.5568" style="stop-color:#02CABF"/>
							<stop  offset="0.8194" style="stop-color:#01C3AC"/>
							<stop  offset="1" style="stop-color:#00C0A5"/>
						</linearGradient>
						<polygon class="st1" points="16.6,7.8 40.9,32.2 16.6,56.5 -7.7,32.2 						"/>
					</g>
				</g>
			</g>
		</g>
		<g>
			<path class="st2" d="M41.1,36c-0.4,0.5-0.8,0.9-1.5,1.2c-0.6,0.3-1.4,0.4-2.3,0.4c-0.8,0-1.6-0.2-2.3-0.6c-0.6-0.5-1.2-1-1.5-1.7
				c-0.4-0.7-0.5-1.6-0.5-2.6v-0.9c0-1.5,0.4-2.8,1.1-3.7c0.7-0.9,1.8-1.3,3.1-1.3c1.1,0,2,0.3,2.6,0.8c0.6,0.5,1.1,1.4,1.3,2.4
				h-1.4c-0.3-1.4-1.1-2.1-2.5-2.1c-0.9,0-1.6,0.4-2.1,1s-0.7,1.6-0.7,2.8v0.8c0,1.2,0.3,2.1,0.8,2.8c0.5,0.7,1.3,1.1,2.2,1.1
				c0.5,0,1-0.1,1.4-0.2c0.4-0.1,0.7-0.3,1-0.5v-2.4h-2.5v-1.1h3.8L41.1,36L41.1,36z"/>
			<path class="st2" d="M47.3,33.2h-2.5v4.3h-1.4V26.9H47c1.2,0,2.1,0.3,2.7,0.8c0.6,0.5,1,1.4,1,2.4c0,0.6-0.2,1.2-0.5,1.7
				c-0.4,0.5-0.8,0.8-1.5,1.1l2.5,4.5v0.1h-1.5L47.3,33.2z M44.9,32h2.2c0.7,0,1.3-0.2,1.6-0.5c0.4-0.4,0.6-0.8,0.6-1.5
				s-0.2-1.2-0.5-1.5c-0.4-0.4-0.9-0.5-1.7-0.5H45C44.9,28,44.9,32,44.9,32z"/>
			<path class="st2" d="M58.6,32.5h-4.6v3.7h5.3v1.1h-6.7V26.9h6.7V28H54v3.4h4.6L58.6,32.5L58.6,32.5z"/>
			<path class="st2" d="M67.1,32.5h-4.6v3.7h5.3v1.1h-6.7V26.9h6.7V28h-5.2v3.4h4.6V32.5L67.1,32.5z"/>
			<path class="st2" d="M77.8,37.4h-1.4l-5.3-8.1v8.1h-1.4V26.9h1.4l5.3,8.2v-8.2h1.4V37.4L77.8,37.4z"/>
			<path class="st2" d="M87.8,33.2h-2.5v4.3H84V26.9h3.5c1.2,0,2.1,0.3,2.7,0.8c0.6,0.5,1,1.4,1,2.4c0,0.6-0.2,1.2-0.5,1.7
				c-0.4,0.5-0.8,0.8-1.5,1.1l2.5,4.5v0.1h-1.5L87.8,33.2z M85.4,32h2.1c0.7,0,1.3-0.2,1.6-0.5c0.4-0.4,0.6-0.8,0.6-1.5
				s-0.2-1.2-0.5-1.5c-0.4-0.4-0.9-0.5-1.6-0.5h-2.2V32L85.4,32z"/>
			<path class="st2" d="M101.2,32.4c0,1-0.2,1.9-0.5,2.7c-0.4,0.7-0.8,1.4-1.5,1.7c-0.6,0.4-1.4,0.6-2.3,0.6c-0.8,0-1.5-0.2-2.2-0.6
				c-0.6-0.4-1.2-1-1.5-1.7c-0.4-0.7-0.5-1.6-0.5-2.6v-0.7c0-1,0.2-1.9,0.5-2.7c0.4-0.8,0.8-1.4,1.5-1.8c0.6-0.5,1.4-0.6,2.2-0.6
				s1.5,0.2,2.3,0.6c0.7,0.5,1.2,1,1.5,1.7c0.4,0.8,0.5,1.6,0.5,2.7V32.4L101.2,32.4z M99.9,31.8c0-1.3-0.3-2.2-0.7-2.9
				c-0.5-0.6-1.2-1-2.1-1s-1.5,0.4-2.1,1c-0.5,0.6-0.7,1.6-0.8,2.8v0.8c0,1.2,0.3,2.2,0.7,2.8c0.5,0.7,1.2,1,2.1,1s1.5-0.4,2.1-1
				c0.5-0.6,0.7-1.5,0.7-2.8L99.9,31.8L99.9,31.8z"/>
			<path class="st2" d="M111.5,32.4c0,1-0.2,1.9-0.5,2.7c-0.4,0.7-0.8,1.4-1.5,1.7c-0.6,0.4-1.4,0.6-2.3,0.6c-0.8,0-1.5-0.2-2.2-0.6
				c-0.6-0.4-1.2-1-1.5-1.7c-0.4-0.7-0.5-1.6-0.5-2.6v-0.7c0-1,0.2-1.9,0.5-2.7c0.4-0.8,0.8-1.4,1.5-1.8c0.6-0.5,1.4-0.6,2.2-0.6
				s1.5,0.2,2.3,0.6c0.7,0.5,1.2,1,1.5,1.7c0.3,0.7,0.5,1.6,0.5,2.7V32.4L111.5,32.4z M110.2,31.8c0-1.3-0.3-2.2-0.7-2.9
				c-0.5-0.6-1.2-1-2.1-1s-1.5,0.4-2.1,1c-0.5,0.6-0.7,1.6-0.8,2.8v0.8c0,1.2,0.3,2.2,0.7,2.8c0.5,0.7,1.2,1,2.1,1s1.6-0.4,2.1-1
				c0.5-0.6,0.7-1.5,0.7-2.8L110.2,31.8L110.2,31.8z"/>
			<path class="st2" d="M115.4,26.9l3.5,8.7l3.5-8.7h1.8v10.6h-1.5v-4.1l0.1-4.5l-3.5,8.6h-1.1l-3.5-8.6l0.2,4.4v4.1h-1.4V26.9
				H115.4z"/>
		</g>
	</g>
</g>
<g id="Layer_3" class="st0">
	<g class="st3">
		<path class="st4" d="M-3,2.2c-8.8-5.1-15.8-12.1-21-21s-7.8-18.7-7.8-29.5s2.6-20.6,7.8-29.6c5.2-8.9,12.2-15.9,21-21
			s18.4-7.7,28.9-7.7c8.2,0,15.9,1.5,23.1,4.4s13.1,7,17.8,12.3l-9.5,9.5c-3.5-4.4-8-7.7-13.5-10s-11.4-3.5-17.7-3.5
			c-7.9,0-15.2,1.9-22,5.7c-6.8,3.8-12.2,9.2-16.3,16c-4.1,6.9-6.1,14.8-6.1,23.9c0,9,2,17,6.1,23.8c4.1,6.9,9.6,12.3,16.4,16
			C11-4.7,18.3-2.8,26-2.8c7.4,0,13.7-1.1,18.7-3.5c5-2.3,9.3-5.4,13-9.3c2.7-2.9,4.9-6.4,6.5-10.5c1.6-4.1,2.7-8.6,3.1-13.6H26.2
			V-52h53.5c0.5,2.9,0.8,5.6,0.8,8.1c0,6.9-1.1,13.5-3.3,20c-2.2,6.5-5.7,12.1-10.4,17C56.5,4.3,42.9,9.8,25.9,9.8
			C15.4,9.8,5.8,7.3-3,2.2z"/>
		<path class="st4" d="M98.6-104h33.6c11.4,0,21.3,2.3,29.8,7.1c8.5,4.7,15,11.3,19.6,19.7c4.5,8.4,6.8,18,6.8,28.9
			s-2.3,20.5-6.8,28.9C177-11,170.5-4.5,162,0.3c-8.5,4.7-18.4,7-29.8,7H98.6V-104z M132.2-5.3c13.2,0,23.6-3.8,31.3-11.3
			s11.6-18.1,11.6-31.7s-3.9-24.2-11.6-31.7c-7.7-7.6-18.2-11.3-31.3-11.3h-20.5v86.1L132.2-5.3L132.2-5.3z"/>
		<path class="st4" d="M-3,151.7c-8.8-5-15.8-12.1-21-21s-7.8-18.7-7.8-29.5s2.6-20.6,7.8-29.5s12.2-15.9,21-21S15.4,43,25.9,43
			c8.2,0,15.9,1.5,23.1,4.4s13.1,7,17.8,12.3l-9.5,9.5c-3.5-4.3-8-7.7-13.5-10s-11.4-3.5-17.7-3.5c-7.9,0-15.2,1.9-22,5.6
			c-6.8,3.8-12.2,9.1-16.3,16s-6.1,14.9-6.1,23.9s2,17,6.1,23.9s9.6,12.2,16.4,16c6.9,3.8,14.2,5.7,21.9,5.7
			c7.4,0,13.7-1.2,18.7-3.5s9.3-5.4,13-9.2c2.7-2.9,4.9-6.5,6.5-10.5c1.6-4.1,2.7-8.6,3.1-13.6H26.2V97.6h53.5
			c0.5,2.9,0.8,5.6,0.8,8.1c0,6.8-1.1,13.5-3.3,20c-2.2,6.5-5.7,12.1-10.4,17c-10.2,11.1-23.9,16.6-40.9,16.6
			C15.4,159.3,5.8,156.8-3,151.7z"/>
	</g>
</g>
</svg>
