<?xml version="1.0" encoding="utf-8"?>
<!-- Generator: Adobe Illustrator 24.1.2, SVG Export Plug-In . SVG Version: 6.00 Build 0)  -->
<svg version="1.1" id="Layer_1" xmlns="http://www.w3.org/2000/svg" xmlns:xlink="http://www.w3.org/1999/xlink" x="0px" y="0px"
	 viewBox="0 0 200 60" style="enable-background:new 0 0 200 60;" xml:space="preserve">
<style type="text/css">
	.st0{display:none;}
	.st1{fill:#666666;}
	.st2{fill:#4285F4;}
	.st3{fill:#00BFA5;}
	.st4{fill:#1CE9B6;}
	.st5{fill:#4FC3F7;}
	.st6{display:inline;}
	.st7{fill:#FFFFFF;}
</style>
<g id="Layer_1_1_" class="st0">
</g>
<g id="Layer_2_1_">
	<path class="st1" d="M49.2,38.6h-0.6l-2.4-8.6c-0.2-0.7-0.3-1.3-0.4-1.7c-0.1,0.4-0.2,1-0.3,1.6c-0.2,0.6-1,3.5-2.4,8.8h-0.7
		l-3.1-11.2H40l1.9,7.2c0.1,0.3,0.2,0.5,0.2,0.8c0.1,0.3,0.1,0.4,0.2,0.7c0.1,0.2,0.1,0.4,0.2,0.6c0,0.2,0.1,0.4,0.1,0.6
		c0.1-0.7,0.3-1.7,0.8-3.1l1.9-6.8h0.9l2.3,7.8c0.3,0.9,0.4,1.7,0.5,2.2c0.1-0.3,0.2-0.8,0.3-1.1c0.1-0.4,0.9-3.3,2.4-8.8h0.8
		L49.2,38.6z"/>
	<path class="st1" d="M53.5,34.4c0,1.1,0.3,2,0.8,2.7c0.5,0.6,1.2,1,2.1,1c1,0,1.7-0.3,2.1-1c0.5-0.6,0.8-1.6,0.8-2.7
		c0-1.1-0.3-2-0.8-2.7c-0.5-0.6-1.2-1-2.1-1c-0.9,0-1.7,0.3-2.1,1C53.8,32.4,53.5,33.3,53.5,34.4L53.5,34.4z M60,34.4
		c0,1.4-0.3,2.4-1,3.1c-0.6,0.7-1.6,1.1-2.7,1.1c-0.7,0-1.3-0.2-1.9-0.5c-0.5-0.3-1-0.9-1.3-1.5c-0.3-0.7-0.4-1.5-0.4-2.3
		c0-1.4,0.3-2.4,1-3.1c0.7-0.8,1.6-1.1,2.7-1.1c1.1,0,2,0.3,2.7,1.1S60,33.1,60,34.4z"/>
	<path class="st1" d="M71.9,38.6v-5.4c0-0.8-0.2-1.4-0.4-1.7c-0.3-0.3-0.8-0.5-1.5-0.5c-0.9,0-1.5,0.3-1.9,0.7
		c-0.4,0.4-0.6,1.2-0.6,2.2v4.9h-0.8V33c0-1.4-0.6-2.1-1.9-2.1c-0.9,0-1.5,0.3-1.9,0.8c-0.4,0.5-0.6,1.3-0.6,2.4v4.6h-0.8v-8.3h0.6
		l0.2,1.1h0.1c0.3-0.4,0.5-0.8,1-1c0.4-0.3,0.9-0.3,1.4-0.3c1.3,0,2.2,0.5,2.5,1.5l0,0c0.3-0.4,0.6-0.9,1-1.1s1-0.3,1.6-0.3
		c0.9,0,1.6,0.3,2,0.7c0.4,0.5,0.7,1.2,0.7,2.3v5.4L71.9,38.6L71.9,38.6z"/>
	<path class="st1" d="M77.9,30.8c-0.8,0-1.5,0.3-1.9,0.8c-0.4,0.5-0.8,1.3-0.9,2.3h5.2c0-1-0.2-1.7-0.6-2.3
		C79.2,31.1,78.6,30.8,77.9,30.8z M78.1,38.8c-1.2,0-2.2-0.3-2.8-1.1c-0.6-0.8-1-1.7-1-3.1c0-1.3,0.3-2.4,1-3.1
		c0.6-0.8,1.6-1.2,2.6-1.2c1,0,1.7,0.3,2.4,1c0.5,0.7,0.9,1.6,0.9,2.8v0.6h-6c0,1.1,0.3,2,0.8,2.6c0.5,0.6,1.3,0.9,2.3,0.9
		c0.4,0,0.9,0,1.2-0.1c0.4-0.1,1-0.3,1.4-0.4v0.7c-0.4,0.2-0.9,0.3-1.3,0.4C79,38.7,78.6,38.8,78.1,38.8L78.1,38.8z"/>
	<path class="st1" d="M88.5,38.6v-5.4c0-0.9-0.2-1.5-0.5-1.8s-0.9-0.6-1.7-0.6c-1,0-1.7,0.3-2.2,0.8c-0.4,0.5-0.7,1.3-0.7,2.4v4.6
		h-0.8v-8.3h0.6l0.2,1.1h0.1c0.5-0.9,1.5-1.3,2.9-1.3c1.9,0,2.8,1,2.8,3.1v5.4C89.2,38.6,88.5,38.6,88.5,38.6z"/>
	<polygon class="st1" points="97.9,38.6 97.1,38.6 97.1,28.1 93.5,28.1 93.5,27.4 101.5,27.4 101.5,28.1 97.9,28.1 	"/>
	<path class="st1" d="M105.5,30.8c-0.8,0-1.5,0.3-1.9,0.8c-0.5,0.5-0.8,1.3-0.9,2.3h5.2c0-1-0.2-1.7-0.6-2.3
		C106.8,31.1,106.2,30.8,105.5,30.8L105.5,30.8z M105.7,38.8c-1.2,0-2.2-0.3-2.8-1.1c-0.6-0.8-1-1.7-1-3.1c0-1.3,0.3-2.4,1-3.1
		c0.6-0.8,1.6-1.2,2.6-1.2c1,0,1.7,0.3,2.4,1c0.5,0.7,0.9,1.6,0.9,2.8v0.6h-6c0,1.1,0.3,2,0.8,2.6c0.5,0.6,1.3,0.9,2.3,0.9
		c0.4,0,0.9,0,1.2-0.1c0.4-0.1,1-0.3,1.4-0.4v0.7c-0.4,0.2-0.9,0.3-1.3,0.4C106.6,38.7,106.2,38.8,105.7,38.8L105.7,38.8z"/>
	<path class="st1" d="M113.7,38.8c-1.2,0-2.1-0.3-2.8-1.1c-0.7-0.8-1-1.8-1-3.1c0-1.4,0.3-2.4,1-3.2c0.7-0.8,1.7-1.1,2.9-1.1
		c0.7,0,1.4,0.1,2.1,0.3l-0.2,0.7c-0.7-0.3-1.3-0.3-1.8-0.3c-1,0-1.8,0.3-2.4,1c-0.5,0.6-0.8,1.6-0.8,2.7s0.3,2,0.8,2.6
		c0.5,0.6,1.2,1,2.2,1c0.7,0,1.4-0.2,2.1-0.4v0.7C115.2,38.6,114.5,38.8,113.7,38.8L113.7,38.8z"/>
	<path class="st1" d="M123.3,38.6v-5.4c0-0.9-0.2-1.5-0.5-1.8c-0.3-0.3-0.9-0.6-1.7-0.6c-1,0-1.7,0.3-2.2,0.8
		c-0.4,0.5-0.7,1.3-0.7,2.4v4.6h-0.8V26.7h0.8v3.8v1h0.1c0.3-0.4,0.7-0.9,1.2-1c0.4-0.3,1-0.3,1.7-0.3c1.9,0,2.8,1,2.8,3.1v5.4
		C124.1,38.6,123.3,38.6,123.3,38.6z"/>
	<path class="st1" d="M136.1,38.6v-5.4c0-0.8-0.2-1.4-0.4-1.7c-0.3-0.3-0.8-0.5-1.5-0.5c-0.9,0-1.5,0.3-1.9,0.7
		c-0.4,0.4-0.6,1.2-0.6,2.2v4.9h-0.8V33c0-1.4-0.6-2.1-1.9-2.1c-0.9,0-1.5,0.3-1.9,0.8c-0.4,0.5-0.6,1.3-0.6,2.4v4.6h-0.8v-8.3h0.6
		l0.2,1.1h0.1c0.3-0.4,0.5-0.8,1-1c0.4-0.3,0.9-0.3,1.4-0.3c1.3,0,2.2,0.5,2.5,1.5l0,0c0.3-0.4,0.6-0.9,1-1.1c0.4-0.3,1-0.3,1.6-0.3
		c0.9,0,1.6,0.3,2,0.7c0.4,0.5,0.7,1.2,0.7,2.3v5.4L136.1,38.6L136.1,38.6z"/>
	<path class="st1" d="M140.9,38.1c0.9,0,1.6-0.3,2.1-0.8c0.5-0.5,0.8-1.2,0.8-2.1v-0.9l-1.5,0.1c-1.1,0.1-2,0.3-2.5,0.5
		c-0.5,0.3-0.8,0.8-0.8,1.4c0,0.5,0.2,1,0.4,1.2C139.9,37.9,140.4,38.1,140.9,38.1L140.9,38.1z M144,38.6l-0.2-1.3h-0.1
		c-0.4,0.5-0.9,0.9-1.3,1.1c-0.5,0.3-1,0.3-1.6,0.3c-0.8,0-1.5-0.2-1.9-0.6c-0.4-0.4-0.7-1-0.7-1.7s0.3-1.5,1-1.9s1.7-0.7,3-0.7
		l1.6-0.1v-0.5c0-0.8-0.2-1.4-0.5-1.7c-0.3-0.4-0.9-0.6-1.6-0.6c-0.8,0-1.6,0.2-2.4,0.6l-0.3-0.7c0.9-0.4,1.7-0.6,2.7-0.6
		c0.9,0,1.6,0.3,2,0.7c0.4,0.4,0.7,1.2,0.7,2.2v5.5L144,38.6z"/>
	<polygon class="st1" points="147.4,34.9 151.6,30.3 152.5,30.3 149.2,33.8 152.8,38.6 151.9,38.6 148.8,34.4 147.4,35.6 
		147.4,38.6 146.6,38.6 146.6,26.7 147.4,26.7 147.4,32.6 147.3,34.9 	"/>
	<path class="st1" d="M156.7,30.8c-0.8,0-1.4,0.3-1.9,0.8c-0.5,0.5-0.8,1.3-0.9,2.3h5.2c0-1-0.2-1.7-0.6-2.3
		C158,31.1,157.4,30.8,156.7,30.8L156.7,30.8z M156.9,38.8c-1.2,0-2.2-0.3-2.8-1.1c-0.7-0.8-1-1.7-1-3.1c0-1.3,0.3-2.4,1-3.1
		c0.6-0.8,1.6-1.2,2.6-1.2c1,0,1.7,0.3,2.4,1c0.5,0.7,0.9,1.6,0.9,2.8v0.6h-6c0,1.1,0.3,2,0.8,2.6c0.5,0.6,1.3,0.9,2.3,0.9
		c0.4,0,0.9,0,1.2-0.1c0.4-0.1,1-0.3,1.4-0.4v0.7c-0.4,0.2-0.9,0.3-1.3,0.4C157.8,38.7,157.3,38.8,156.9,38.8L156.9,38.8z"/>
	<path class="st1" d="M164.8,30.1c0.3,0,0.8,0,1.1,0.1l-0.2,0.7c-0.3-0.1-0.7-0.2-1-0.1c-0.7,0-1.3,0.3-1.7,0.9
		c-0.4,0.6-0.7,1.4-0.7,2.3v4.6h-0.8v-8.3h0.6l0.1,1.5h0.1c0.3-0.6,0.7-1,1.1-1.3C163.8,30.2,164.3,30.1,164.8,30.1L164.8,30.1z"/>
	<path class="st1" d="M172.2,36.4c0,0.8-0.3,1.3-0.9,1.7c-0.5,0.4-1.4,0.6-2.4,0.6c-1.1,0-2-0.2-2.6-0.5v-0.8
		c0.8,0.4,1.7,0.6,2.6,0.6c0.8,0,1.5-0.2,1.8-0.4c0.4-0.3,0.6-0.6,0.6-1s-0.2-0.8-0.5-1s-0.9-0.5-1.7-0.9c-0.9-0.3-1.4-0.5-1.7-0.8
		c-0.3-0.2-0.5-0.4-0.8-0.7c-0.2-0.3-0.3-0.6-0.3-1c0-0.6,0.3-1.1,0.8-1.5c0.5-0.3,1.2-0.5,2.2-0.5c0.9,0,1.7,0.2,2.5,0.5l-0.3,0.7
		c-0.8-0.3-1.6-0.5-2.3-0.5c-0.7,0-1.2,0.1-1.6,0.3c-0.4,0.3-0.6,0.5-0.6,1c0,0.4,0.2,0.8,0.4,1c0.3,0.3,0.9,0.5,1.8,0.9
		c0.8,0.3,1.3,0.5,1.7,0.7c0.3,0.2,0.6,0.4,0.8,0.7C172.1,35.7,172.2,36.1,172.2,36.4L172.2,36.4z"/>
	<polygon class="st2" points="13.4,38.8 9.4,38.8 9.4,25.7 13.4,25.7 	"/>
	<polygon class="st3" points="25.4,38.8 21.4,38.8 21.4,25.7 25.4,25.7 	"/>
	<polygon class="st4" points="21.4,38.8 25.4,38.8 19.4,27.8 15.4,27.8 	"/>
	<polygon class="st5" points="13.4,38.8 9.4,38.8 15.4,27.8 19.4,27.8 	"/>
	<path class="st2" d="M7,40.8V23.8h4.4v-2.5H5.5c-0.5,0-1,0.4-1,1v19.8c0,0.5,0.4,1.1,1,1.1h5.9v-2.5C11.5,40.8,7,40.8,7,40.8z"/>
	<path class="st3" d="M27.7,40.8V23.8h-4.4v-2.5h5.9c0.5,0,1,0.4,1,1v19.8c0,0.5-0.4,1.1-1,1.1h-5.9v-2.5
		C23.4,40.8,27.7,40.8,27.7,40.8z"/>
</g>
<g id="Layer_3" class="st0">
	<g class="st6">
		<path class="st7" d="M-3,2.2c-8.8-5.1-15.8-12.1-21-21s-7.8-18.7-7.8-29.5s2.6-20.6,7.8-29.6c5.2-8.9,12.2-15.9,21-21
			s18.4-7.7,28.9-7.7c8.2,0,15.9,1.5,23.1,4.4s13.1,7,17.8,12.3l-9.5,9.5c-3.5-4.4-8-7.7-13.5-10s-11.4-3.5-17.7-3.5
			c-7.9,0-15.2,1.9-22,5.7c-6.8,3.8-12.2,9.2-16.3,16c-4.1,6.9-6.1,14.8-6.1,23.9c0,9,2,17,6.1,23.8c4.1,6.9,9.6,12.3,16.4,16
			C11-4.7,18.3-2.8,26-2.8c7.4,0,13.7-1.1,18.7-3.5c5-2.3,9.3-5.4,13-9.3c2.7-2.9,4.9-6.4,6.5-10.5c1.6-4.1,2.7-8.6,3.1-13.6H26.2
			V-52h53.5c0.5,2.9,0.8,5.6,0.8,8.1c0,6.9-1.1,13.5-3.3,20c-2.2,6.5-5.7,12.1-10.4,17C56.5,4.3,42.9,9.8,25.9,9.8
			C15.4,9.8,5.8,7.3-3,2.2z"/>
		<path class="st7" d="M98.6-104h33.6c11.4,0,21.3,2.3,29.8,7.1c8.5,4.7,15,11.3,19.6,19.7c4.5,8.4,6.8,18,6.8,28.9
			s-2.3,20.5-6.8,28.9C177-11,170.5-4.5,162,0.3c-8.5,4.7-18.4,7-29.8,7H98.6V-104z M132.2-5.3c13.2,0,23.6-3.8,31.3-11.3
			s11.6-18.1,11.6-31.7s-3.9-24.2-11.6-31.7c-7.7-7.6-18.2-11.3-31.3-11.3h-20.5v86.1L132.2-5.3L132.2-5.3z"/>
		<path class="st7" d="M-3,151.7c-8.8-5-15.8-12.1-21-21s-7.8-18.7-7.8-29.5s2.6-20.6,7.8-29.5s12.2-15.9,21-21S15.4,43,25.9,43
			c8.2,0,15.9,1.5,23.1,4.4s13.1,7,17.8,12.3l-9.5,9.5c-3.5-4.3-8-7.7-13.5-10s-11.4-3.5-17.7-3.5c-7.9,0-15.2,1.9-22,5.6
			c-6.8,3.8-12.2,9.1-16.3,16s-6.1,14.9-6.1,23.9s2,17,6.1,23.9s9.6,12.2,16.4,16c6.9,3.8,14.2,5.7,21.9,5.7
			c7.4,0,13.7-1.2,18.7-3.5s9.3-5.4,13-9.2c2.7-2.9,4.9-6.5,6.5-10.5c1.6-4.1,2.7-8.6,3.1-13.6H26.2V97.6h53.5
			c0.5,2.9,0.8,5.6,0.8,8.1c0,6.8-1.1,13.5-3.3,20c-2.2,6.5-5.7,12.1-10.4,17c-10.2,11.1-23.9,16.6-40.9,16.6
			C15.4,159.3,5.8,156.8-3,151.7z"/>
	</g>
</g>
</svg>
